<svg width="172" height="24" viewBox="0 0 172 24" fill="none" xmlns="http://www.w3.org/2000/svg">
<path d="M24.0577 11.5222C24.0574 10.6438 23.826 9.77899 23.3837 9.0031C22.9413 8.2272 22.3014 7.56383 21.52 7.07098V0.781595C21.5204 0.638248 21.4783 0.49759 21.3982 0.37507C21.3182 0.252551 21.2035 0.152909 21.0666 0.0870875C20.9298 0.0212658 20.776 -0.0081895 20.6223 0.0019564C20.4686 0.0121023 20.3209 0.061457 20.1954 0.1446L13.7675 4.36179H10.2965L3.86301 0.1446C3.7375 0.0621815 3.59006 0.0134292 3.43679 0.00366647C3.28352 -0.00609628 3.13032 0.0235059 2.99391 0.0892405C2.85749 0.154976 2.74312 0.254316 2.66326 0.376414C2.58341 0.498513 2.54115 0.638676 2.5411 0.781595V7.07098C1.75599 7.56455 1.11352 8.2303 0.670362 9.00952C0.227206 9.78867 -0.00300825 10.6574 2.96806e-05 11.5389C0.00306761 12.4204 0.239264 13.2877 0.687781 14.0642C1.1363 14.8407 1.78335 15.5027 2.57185 15.9916C2.8006 18.1774 3.89577 20.2058 5.64404 21.6816C7.39232 23.1574 9.66849 23.9749 12.0292 23.9749C14.3898 23.9749 16.666 23.1574 18.4143 21.6816C20.1626 20.2058 21.2577 18.1774 21.4865 15.9916C22.2776 15.5012 22.9262 14.8366 23.3748 14.057C23.8233 13.2773 24.0579 12.4065 24.0577 11.5222ZM22.3808 11.5222C22.3808 12.2777 22.14 13.0162 21.6887 13.6444C21.2375 14.2725 20.5961 14.7621 19.8459 15.0511C19.0955 15.3401 18.2699 15.4156 17.4734 15.2679C16.677 15.1204 15.9454 14.7564 15.3714 14.2219C14.7974 13.6875 14.4066 13.0068 14.2485 12.2657C14.0904 11.5246 14.1721 10.7566 14.4832 10.0587C14.7945 9.36085 15.3211 8.76457 15.9965 8.34519C16.6721 7.92581 17.4661 7.70227 18.2782 7.70278C19.3663 7.70415 20.4094 8.10705 21.1786 8.8231C21.9477 9.53915 22.3801 10.5098 22.3808 11.5222ZM4.21515 2.28699L9.54749 5.78138C9.68888 5.87436 9.85781 5.92431 10.031 5.92438H14.0302C14.2024 5.92377 14.3703 5.87385 14.5109 5.78138L19.8432 2.28699V6.34818C19.0535 6.14032 18.2252 6.09193 17.4137 6.20628C16.6022 6.32062 15.8264 6.59505 15.1383 7.01117C14.4502 7.42728 13.8657 7.97543 13.4239 8.61894C12.9821 9.26245 12.6934 9.98632 12.577 10.7422H11.4954C11.3789 9.98632 11.0902 9.26245 10.6485 8.61894C10.2067 7.97543 9.62214 7.42728 8.93401 7.01117C8.24591 6.59505 7.47012 6.32062 6.65865 6.20628C5.8472 6.09193 5.01883 6.14032 4.22912 6.34818L4.21515 2.28699ZM1.67754 11.5222C1.67754 10.7668 1.91832 10.0283 2.36943 9.40026C2.82054 8.77216 3.46173 8.28255 4.2119 7.99355C4.96207 7.70443 5.78754 7.6288 6.58392 7.77615C7.38029 7.92356 8.11181 8.28728 8.68594 8.82147C9.26014 9.35559 9.6511 10.0362 9.80954 10.777C9.96799 11.5179 9.88669 12.2859 9.57595 12.9838C9.26522 13.6817 8.73895 14.2782 8.06384 14.6978C7.38871 15.1175 6.59497 15.3416 5.78299 15.3416C4.69461 15.3402 3.65123 14.9374 2.88163 14.2214C2.11203 13.5054 1.67902 12.5347 1.67754 11.5222ZM12.018 22.5435C10.2187 22.5483 8.47348 21.9718 7.08045 20.9124C5.68738 19.853 4.73289 18.3766 4.38003 16.7351C5.16191 16.9213 5.97714 16.9522 6.77269 16.8258C7.56825 16.6994 8.32627 16.4186 8.99751 16.0017C9.66866 15.5847 10.2379 15.041 10.6684 14.4059C11.0988 13.7707 11.3805 13.0583 11.4954 12.3152H12.577C12.6918 13.0583 12.9736 13.7707 13.404 14.4059C13.8344 15.041 14.4037 15.5847 15.0749 16.0017C15.746 16.4186 16.5041 16.6994 17.2996 16.8258C18.0952 16.9522 18.9104 16.9213 19.6923 16.7351C19.3383 18.3823 18.3785 19.8632 16.9778 20.9232C15.5773 21.9832 13.8235 22.5562 12.018 22.5435Z" fill="#100F0D"/>
<path d="M15.8818 17.505C15.6776 17.4243 15.4473 17.4222 15.2414 17.4992C15.0355 17.5762 14.8709 17.726 14.7835 17.9158C14.701 18.0968 14.5631 18.2512 14.3869 18.3598C14.2108 18.4684 14.0041 18.5263 13.7928 18.5263C13.5814 18.5263 13.3748 18.4684 13.1986 18.3598C13.0223 18.2512 12.8845 18.0968 12.802 17.9158C12.802 17.8924 12.7768 17.869 12.7629 17.8455L13.6013 16.9849C13.6798 16.9044 13.7314 16.8044 13.7499 16.6971C13.7685 16.5898 13.7531 16.4798 13.7058 16.3804C13.6585 16.281 13.5811 16.1966 13.4832 16.1373C13.3853 16.078 13.271 16.0464 13.1542 16.0464H10.8988C10.7822 16.0469 10.6683 16.0789 10.5708 16.1384C10.4733 16.1978 10.3964 16.2824 10.3494 16.3816C10.3025 16.4809 10.2873 16.5906 10.3059 16.6977C10.3246 16.8048 10.3762 16.9046 10.4545 16.9849L11.2929 17.8455C11.2929 17.8664 11.2677 17.8872 11.2565 17.9079C11.2454 17.9288 11.2565 17.9079 11.2565 17.9288C11.1736 18.1096 11.0353 18.2638 10.8588 18.3721C10.6825 18.4805 10.4758 18.5383 10.2644 18.5383C10.053 18.5383 9.84634 18.4805 9.66991 18.3721C9.49358 18.2638 9.35527 18.1096 9.2723 17.9288C9.2336 17.8289 9.17335 17.7374 9.0953 17.6599C9.01724 17.5825 8.92303 17.5206 8.81843 17.4782C8.71374 17.4358 8.6009 17.4137 8.48681 17.4133C8.37263 17.4129 8.25963 17.4341 8.15464 17.4758C8.04966 17.5175 7.95492 17.5787 7.87624 17.6555C7.79755 17.7325 7.73657 17.8235 7.69704 17.9231C7.65751 18.0227 7.64025 18.1288 7.64633 18.2348C7.65242 18.3409 7.6817 18.4446 7.7324 18.5398C7.90262 18.9045 8.16197 19.2272 8.4898 19.4824C8.81768 19.7375 9.20498 19.9179 9.62098 20.0093C10.037 20.1007 10.4701 20.1005 10.8861 20.0088C11.3019 19.917 11.6891 19.7363 12.0167 19.4809C12.3454 19.7386 12.7345 19.9209 13.1527 20.0133C13.5708 20.1056 14.0065 20.1053 14.4246 20.0125C14.8426 19.9197 15.2314 19.7369 15.5597 19.4789C15.8881 19.2208 16.1468 18.8947 16.315 18.5267C16.4022 18.3377 16.4056 18.1242 16.3245 17.9329C16.2434 17.7415 16.0843 17.5877 15.8818 17.505Z" fill="#100F0D"/>
<path d="M5.78447 14.3667C6.35894 14.3653 6.90941 14.1523 7.31537 13.7741C7.72131 13.3959 7.94965 12.8835 7.95039 12.3491V10.6955C7.96084 10.4246 7.91253 10.1546 7.80832 9.90147C7.70411 9.64831 7.54614 9.41737 7.34387 9.22227C7.14158 9.02717 6.89912 8.87202 6.63096 8.76611C6.3628 8.66013 6.07443 8.60547 5.78308 8.60547C5.49173 8.60547 5.20336 8.66013 4.9352 8.76611C4.66704 8.87202 4.42458 9.02717 4.22229 9.22227C4.02002 9.41737 3.86205 9.64831 3.75785 9.90147C3.65363 10.1546 3.60532 10.4246 3.61578 10.6955V12.3491C3.61651 12.884 3.84524 13.3968 4.25179 13.775C4.65834 14.1532 5.20953 14.366 5.78447 14.3667ZM5.29261 10.6955C5.28751 10.6327 5.2964 10.5696 5.31874 10.5101C5.34107 10.4506 5.37637 10.3961 5.42241 10.3499C5.46845 10.3037 5.52426 10.2668 5.58632 10.2416C5.64838 10.2164 5.71536 10.2034 5.78308 10.2034C5.8508 10.2034 5.91778 10.2164 5.97984 10.2416C6.0419 10.2668 6.09771 10.3037 6.14375 10.3499C6.18979 10.3961 6.22509 10.4506 6.24742 10.5101C6.26976 10.5696 6.27865 10.6327 6.27355 10.6955V12.3491C6.27865 12.4119 6.26976 12.475 6.24742 12.5345C6.22509 12.594 6.18979 12.6485 6.14375 12.6947C6.09771 12.7409 6.0419 12.7778 5.97984 12.803C5.91778 12.8282 5.8508 12.8412 5.78308 12.8412C5.71536 12.8412 5.64838 12.8282 5.58632 12.803C5.52426 12.7778 5.46845 12.7409 5.42241 12.6947C5.37637 12.6485 5.34107 12.594 5.31874 12.5345C5.2964 12.475 5.28751 12.4119 5.29261 12.3491V10.6955Z" fill="#100F0D"/>
<path d="M19.7603 10.3523C19.612 10.21 19.4112 10.1256 19.1984 10.1161C18.9857 10.1066 18.7772 10.1728 18.615 10.3012C18.4528 10.4295 18.3492 10.6105 18.3252 10.8073C18.3013 11.0042 18.3587 11.2021 18.4859 11.361H16.06C15.8376 11.361 15.6244 11.4432 15.4671 11.5895C15.3099 11.7357 15.2216 11.9342 15.2216 12.141C15.2216 12.3479 15.3099 12.5463 15.4671 12.6926C15.6244 12.8388 15.8376 12.921 16.06 12.921H20.4952C20.6609 12.9209 20.8229 12.8751 20.9607 12.7893C21.0984 12.7036 21.2057 12.5819 21.2692 12.4394C21.3325 12.297 21.3491 12.1403 21.3168 11.9891C21.2846 11.8379 21.2048 11.6989 21.0877 11.5898L19.7603 10.3523Z" fill="#100F0D"/>
<path d="M42.7091 8.03187V14.8226H43.8342V18.5807H41.5464L41.3496 16.9522H34.486L34.3067 18.5807H32.0015V14.8226H33.2163L34.6451 8.03187H42.7091ZM35.9525 14.8226H40.0828V10.0988H36.8115L35.9525 14.8226ZM51.9069 8.03187C52.3465 8.03187 52.7601 8.09187 53.139 8.20932C53.5208 8.32676 53.8477 8.49376 54.1225 8.71038C54.3973 8.92444 54.6113 9.18279 54.7646 9.4855C54.9179 9.78565 54.9959 10.1249 54.9959 10.5008C54.9959 10.78 54.9381 11.0462 54.8253 11.2994C54.7125 11.5525 54.5361 11.7534 54.2989 11.9049C54.727 12.1318 55.0625 12.4189 55.2997 12.7687C55.5369 13.1184 55.6584 13.5777 55.6584 14.1467C55.6584 14.5329 55.5745 14.8983 55.4067 15.2428C55.2389 15.5873 55.0104 15.8848 54.7183 16.1379C54.4261 16.3911 54.0849 16.5894 53.6915 16.7356C53.2981 16.8818 52.8758 16.9522 52.4218 16.9522H45.4858V8.03187H51.9069ZM48.1178 11.3567H51.8895C52.0197 11.3567 52.1412 11.2941 52.2568 11.1715C52.3697 11.0488 52.4275 10.9105 52.4275 10.7591C52.4275 10.6417 52.3842 10.5111 52.2944 10.3729C52.2048 10.2345 52.04 10.1641 51.8028 10.1641H48.1207V11.3567H48.1178ZM48.1178 14.8226H52.3552C52.5577 14.8226 52.7313 14.7626 52.873 14.6425C53.0147 14.5225 53.087 14.3554 53.087 14.1362C53.087 13.9301 53.0118 13.7578 52.8642 13.6221C52.7139 13.4864 52.523 13.4185 52.2829 13.4185H48.1178V14.8226ZM67.9134 12.4998C67.9134 13.1993 67.76 13.8361 67.4593 14.4102C67.1556 14.9844 66.7506 15.4777 66.2445 15.8874C65.7383 16.2972 65.1512 16.613 64.4772 16.8399C63.8062 17.067 63.1004 17.1793 62.3629 17.1793C61.6253 17.1793 60.9195 17.067 60.2486 16.8399C59.5775 16.613 58.9875 16.2972 58.4813 15.8874C57.9751 15.4777 57.5702 14.987 57.2665 14.4102C56.9628 13.8361 56.8124 13.1993 56.8124 12.4998C56.8124 11.8004 56.9628 11.1636 57.2665 10.5895C57.5702 10.0153 57.9751 9.52204 58.4813 9.11234C58.9875 8.70256 59.5746 8.38676 60.2486 8.15977C60.9195 7.9327 61.6253 7.82044 62.3629 7.82044C63.1004 7.82044 63.8062 7.9327 64.4772 8.15977C65.1483 8.38676 65.7383 8.70256 66.2445 9.11234C66.7506 9.52204 67.1556 10.0127 67.4593 10.5895C67.76 11.1663 67.9134 11.803 67.9134 12.4998ZM59.4416 12.4998C59.4416 12.9096 59.5168 13.2776 59.6643 13.6038C59.8118 13.9326 60.023 14.2119 60.289 14.4416C60.5581 14.6738 60.8675 14.8513 61.2175 14.974C61.5675 15.0966 61.9522 15.1593 62.3715 15.1593C62.7765 15.1593 63.1583 15.0966 63.5169 14.974C63.8756 14.8513 64.1851 14.6738 64.4454 14.4416C64.7086 14.2093 64.914 13.9301 65.0615 13.6038C65.209 13.2749 65.2842 12.907 65.2842 12.4998C65.2842 12.0901 65.209 11.7221 65.0615 11.3959C64.9111 11.0671 64.7057 10.7878 64.4454 10.5581C64.1822 10.3259 63.8727 10.1484 63.5169 10.0257C63.1583 9.9031 62.7765 9.84047 62.3715 9.84047C61.955 9.84047 61.5704 9.9031 61.2175 10.0257C60.8646 10.1484 60.5551 10.3259 60.289 10.5581C60.0201 10.7904 59.8118 11.0697 59.6643 11.3959C59.5139 11.7248 59.4416 12.0928 59.4416 12.4998ZM72.1739 8.03187V13.6925L77.3571 8.03187H79.8763V16.9522H77.2471V11.3228L72.064 16.9522H69.5447V8.03187H72.1739ZM84.3362 8.03187V11.4298C84.3362 11.97 84.481 12.3667 84.7673 12.6199C85.0535 12.8731 85.4671 13.001 86.0055 13.001H88.805V8.03187H91.4347V16.9522H88.805V15.1305H85.696C85.1001 15.1305 84.5559 15.0444 84.0699 14.8722C83.5814 14.6999 83.1621 14.4598 82.8092 14.1545C82.4563 13.8492 82.1873 13.4759 81.9964 13.0427C81.8055 12.6069 81.7101 12.1267 81.7101 11.5995V8.03187H84.3362ZM96.114 8.03187V11.2915H100.959V8.03187H103.588V16.9522H100.959V13.4211H96.114V16.9522H93.4851V8.03187H96.114ZM108.227 8.03187V9.93438H111.32C111.915 9.93438 112.468 10.0127 112.974 10.1693C113.48 10.3259 113.92 10.553 114.287 10.8478C114.657 11.1454 114.946 11.5055 115.155 11.9309C115.363 12.3563 115.467 12.8339 115.467 13.3611C115.467 13.9013 115.363 14.3868 115.155 14.8252C114.946 15.2611 114.657 15.6395 114.287 15.9578C113.917 16.2763 113.48 16.5216 112.974 16.6939C112.468 16.866 111.915 16.9522 111.32 16.9522H105.598V8.03187H108.227ZM108.227 14.7913H111.14C111.736 14.7913 112.167 14.6765 112.436 14.4442C112.705 14.2119 112.838 13.8544 112.838 13.3716C112.838 12.8991 112.705 12.5625 112.436 12.3642C112.167 12.1658 111.736 12.0667 111.14 12.0667H108.227V14.7913ZM118.791 8.03187V16.9522H116.161V8.03187H118.791ZM123.421 8.03187V13.6925L128.605 8.03187H131.124V16.9522H128.495V11.3228L123.311 16.9522H120.792V8.03187H123.421ZM129.07 6.69302C128.76 6.92008 128.472 7.10276 128.203 7.24108C127.933 7.38201 127.676 7.48902 127.425 7.5647C127.173 7.64039 126.93 7.68736 126.692 7.71085C126.455 7.73173 126.204 7.74217 125.941 7.74217C125.677 7.74217 125.428 7.73173 125.189 7.71085C124.951 7.68997 124.705 7.64039 124.457 7.5647C124.205 7.48902 123.948 7.38201 123.679 7.24108C123.409 7.10015 123.126 6.91747 122.829 6.69302L124.044 5.41943C124.307 5.59168 124.573 5.71957 124.847 5.80569C125.122 5.89181 125.483 5.93357 125.938 5.93357C126.392 5.93357 126.753 5.89181 127.028 5.80569C127.303 5.71957 127.574 5.59168 127.85 5.41943L129.07 6.69302ZM140.295 8.03187V11.1766H142.618L144.995 8.03187H148.035L144.854 12.1606L148.25 16.9522H145.12L142.688 13.3558H140.293V16.9522H137.664V8.03187H140.295ZM159.802 12.4998C159.802 13.1993 159.648 13.8361 159.348 14.4102C159.044 14.9844 158.639 15.4777 158.133 15.8874C157.627 16.2972 157.039 16.613 156.365 16.8399C155.695 17.067 154.989 17.1793 154.252 17.1793C153.513 17.1793 152.808 17.067 152.137 16.8399C151.466 16.613 150.876 16.2972 150.369 15.8874C149.864 15.4777 149.458 14.987 149.155 14.4102C148.852 13.8361 148.701 13.1993 148.701 12.4998C148.701 11.8004 148.852 11.1636 149.155 10.5895C149.458 10.0153 149.864 9.52204 150.369 9.11234C150.876 8.70256 151.463 8.38676 152.137 8.15977C152.808 7.9327 153.513 7.82044 154.252 7.82044C154.989 7.82044 155.695 7.9327 156.365 8.15977C157.037 8.38676 157.627 8.70256 158.133 9.11234C158.639 9.52204 159.044 10.0127 159.348 10.5895C159.648 11.1663 159.802 11.803 159.802 12.4998ZM151.327 12.4998C151.327 12.9096 151.402 13.2776 151.549 13.6038C151.698 13.9326 151.908 14.2119 152.174 14.4416C152.443 14.6738 152.753 14.8513 153.103 14.974C153.453 15.0966 153.838 15.1593 154.257 15.1593C154.662 15.1593 155.044 15.0966 155.402 14.974C155.761 14.8513 156.071 14.6738 156.331 14.4416C156.594 14.2093 156.8 13.9301 156.947 13.6038C157.094 13.2749 157.17 12.907 157.17 12.4998C157.17 12.0901 157.094 11.7221 156.947 11.3959C156.796 11.0671 156.591 10.7878 156.331 10.5581C156.067 10.3259 155.758 10.1484 155.402 10.0257C155.044 9.9031 154.662 9.84047 154.257 9.84047C153.84 9.84047 153.456 9.9031 153.103 10.0257C152.75 10.1484 152.441 10.3259 152.174 10.5581C151.906 10.7904 151.698 11.0697 151.549 11.3959C151.402 11.7248 151.327 12.0928 151.327 12.4998ZM170.975 8.03187V10.1614H167.131V16.9522H164.502V10.1614H160.658V8.03187H170.975Z" fill="#100F0D"/>
</svg>
