<svg width="285" height="96" viewBox="0 0 285 96" fill="none" xmlns="http://www.w3.org/2000/svg">
<path fill-rule="evenodd" clip-rule="evenodd" d="M102.994 0H98.9331C97.112 0 95.5661 1.13539 95.027 2.86793L92.2606 11.7663C90.0175 12.4586 87.8643 13.3526 85.8214 14.4268L77.5462 10.0814C75.9344 9.23493 74.036 9.5216 72.7484 10.8043C70.5701 12.9742 68.393 15.1441 66.2147 17.3129C64.926 18.5967 64.6393 20.4879 65.489 22.0935L69.8512 30.337C68.774 32.372 67.8766 34.5181 67.1816 36.7515L58.2479 39.5073C56.5075 40.0433 55.3689 41.5831 55.3689 43.3984C55.3689 46.4657 55.3689 49.5342 55.3689 52.6027C55.3689 54.418 56.5075 55.9567 58.2479 56.4938L67.1816 59.2496C67.8766 61.483 68.774 63.628 69.8512 65.663L65.489 73.9076C64.6393 75.5132 64.926 77.4044 66.2147 78.6871C68.393 80.857 70.5701 83.0269 72.7484 85.1957C74.036 86.4795 75.9344 86.7651 77.5462 85.9186L85.8214 81.5743C87.8643 82.6485 90.0175 83.5425 92.2606 84.2337L95.027 93.1321C95.5661 94.8657 97.112 96 98.9331 96H102.994V68.7553C91.742 68.4607 82.7104 59.2813 82.7104 48C82.7104 36.7198 91.742 27.5404 102.994 27.2458V0Z" fill="#100F0D"/>
<path fill-rule="evenodd" clip-rule="evenodd" d="M107.895 26.8143V4.07381C109.637 5.46301 111.312 7.39837 112.866 9.8459C115.158 13.4571 117.152 18.1414 118.682 23.8036C118.95 24.7962 119.198 25.8013 119.428 26.8143H107.895ZM107.895 45.0348V32.1909H120.458C121.123 36.4039 121.486 40.7256 121.564 45.0348H107.895ZM107.895 63.2542V50.4103H121.515C121.406 53.395 121.161 56.3479 120.785 59.2249C120.608 60.5869 120.401 61.9319 120.165 63.2542H107.895ZM107.895 89.623V68.6297H119.023C117.168 76.0607 114.345 82.4606 110.682 86.8491C109.77 87.9426 108.838 88.8661 107.895 89.623ZM124.944 26.8143C124.63 25.3288 124.278 23.8614 123.888 22.4178C122.31 16.5721 120.238 11.6215 117.838 7.66465C119.182 8.55302 120.486 9.53426 121.741 10.6051C126.048 14.2832 129.783 19.0185 132.622 24.7146C132.967 25.4081 133.296 26.1084 133.609 26.8143H124.944ZM126.943 45.0348C126.871 40.7324 126.531 36.4129 125.906 32.1909H135.623C136.932 36.3937 137.678 40.7177 137.892 45.0348H126.943ZM125.618 63.2542C125.804 62.1472 125.971 61.0265 126.119 59.8968C126.521 56.8023 126.783 53.6239 126.896 50.4103H137.885C137.715 53.6658 137.248 56.8861 136.494 60.0181C136.23 61.1081 135.933 62.188 135.602 63.2542H125.618ZM115.871 88.9295C119.736 83.7501 122.67 76.6568 124.544 68.6297H133.59C130.129 76.4721 124.687 83.2662 117.523 87.9165C116.979 88.2701 116.429 88.6077 115.871 88.9295ZM148.248 68.6297C142.125 81.4566 130.498 91.172 116.409 94.7493C117.767 94.0558 119.118 93.2773 120.453 92.4105C129.175 86.7483 135.617 78.3043 139.403 68.6297H148.248ZM152.862 50.4103C152.631 54.8794 151.79 59.1875 150.424 63.2542H141.202C141.386 62.5925 141.56 61.9274 141.722 61.2566C142.572 57.7235 143.093 54.0862 143.267 50.4103H152.862ZM150.304 32.1909C151.705 36.2543 152.579 40.5624 152.84 45.0348H143.274C143.082 40.7279 142.41 36.4118 141.232 32.1909H150.304ZM117.97 1.4642C131.231 5.30661 142.147 14.6333 148.079 26.8143H139.436C138.843 25.3039 138.181 23.8104 137.449 22.3408C134.276 15.9749 130.084 10.6674 125.239 6.53153C122.95 4.5769 120.513 2.884 117.97 1.4642Z" fill="#4AA0DE"/>
<path d="M174.688 43.9783C181.308 43.9783 184.509 40.6061 184.509 36.136C184.509 27.0121 170.421 29.6137 170.421 25.7294C170.421 24.2643 171.671 23.2751 173.914 23.2751C176.417 23.2751 179.065 24.117 181.051 25.9504L183.956 22.1385C181.53 19.9029 178.292 18.7313 174.393 18.7313C168.618 18.7313 165.088 22.1023 165.088 26.1691C165.088 35.3666 179.213 32.3989 179.213 36.7229C179.213 38.1144 177.814 39.4334 174.946 39.4334C171.561 39.4334 168.876 37.932 167.148 36.136L164.315 40.0928C166.596 42.4021 169.979 43.9783 174.688 43.9783Z" fill="#100F0D"/>
<path d="M214.67 43.5376V30.7504C214.67 27.1221 212.721 25.3998 209.448 25.3998C206.726 25.3998 204.372 27.0122 203.341 28.6247C202.679 26.61 201.024 25.3998 198.412 25.3998C195.691 25.3998 193.337 27.0859 192.601 28.1487V25.8394H187.93V43.5376H192.601V31.6297C193.299 30.6405 194.661 29.5402 196.278 29.5402C198.191 29.5402 198.928 30.713 198.928 32.3617V43.5376H203.635V31.5923C204.297 30.6405 205.659 29.5402 207.315 29.5402C209.227 29.5402 209.963 30.713 209.963 32.3617V43.5376H214.67Z" fill="#100F0D"/>
<path d="M226.184 40.8271C224.344 40.8271 222.837 39.873 222.837 38.2243C222.837 36.5019 224.344 35.549 226.184 35.549C227.693 35.549 229.164 36.0623 229.936 37.0889V39.2872C229.164 40.3138 227.693 40.8271 226.184 40.8271ZM234.608 43.5375V32.1054C234.608 27.0121 230.892 25.3997 226.847 25.3997C224.051 25.3997 221.255 26.2801 219.085 28.1849L220.85 31.2998C222.358 29.9072 224.124 29.2103 226.037 29.2103C228.391 29.2103 229.936 30.3831 229.936 32.178V34.5598C228.759 33.1683 226.661 32.399 224.308 32.399C221.475 32.399 218.128 33.9751 218.128 38.1144C218.128 42.0724 221.475 43.9783 224.308 43.9783C226.625 43.9783 228.722 43.1352 229.936 41.7052V43.5375H234.608Z" fill="#100F0D"/>
<path d="M243.913 43.5376V31.8483C244.686 30.713 246.746 29.8337 248.29 29.8337C248.806 29.8337 249.247 29.87 249.578 29.9436V25.3998C247.37 25.3998 245.165 26.6825 243.913 28.2587V25.8394H239.242V43.5376H243.913Z" fill="#100F0D"/>
<path d="M258.443 43.9783C260.393 43.9783 261.642 43.4649 262.343 42.8417L261.35 39.3245C261.091 39.5806 260.429 39.8367 259.731 39.8367C258.699 39.8367 258.112 38.9948 258.112 37.8946V29.9072H261.717V25.8393H258.112V21.0032H253.403V25.8393H250.461V29.9072H253.403V39.141C253.403 42.2922 255.169 43.9783 258.443 43.9783Z" fill="#100F0D"/>
<path d="M174.688 76.4312C181.308 76.4312 184.509 73.0601 184.509 68.59C184.509 59.4661 170.421 62.0666 170.421 58.1834C170.421 56.7172 171.671 55.728 173.914 55.728C176.417 55.728 179.065 56.571 181.051 58.4021L183.956 54.5926C181.53 52.3569 178.292 51.1853 174.393 51.1853C168.618 51.1853 165.088 54.5563 165.088 58.6231C165.088 67.8206 179.213 64.8519 179.213 69.1758C179.213 70.5684 177.814 71.8873 174.946 71.8873C171.561 71.8873 168.876 70.3848 167.148 68.59L164.315 72.5469C166.596 74.855 169.979 76.4312 174.688 76.4312Z" fill="#100F0D"/>
<path d="M200.362 65.475H191.608C191.828 63.7164 193.08 61.5544 195.986 61.5544C199.074 61.5544 200.252 63.789 200.362 65.475ZM196.278 76.4312C199.038 76.4312 201.834 75.5881 203.599 73.9757L201.539 70.9707C200.399 72.0709 198.303 72.7304 196.795 72.7304C193.778 72.7304 191.975 70.8619 191.68 68.6263H204.887V67.6007C204.887 61.8105 201.282 57.8537 195.986 57.8537C190.578 57.8537 186.789 61.9941 186.789 67.1237C186.789 72.8029 190.873 76.4312 196.278 76.4312Z" fill="#100F0D"/>
<path d="M212.942 75.9917V64.3024C213.714 63.1671 215.774 62.2878 217.319 62.2878C217.834 62.2878 218.275 62.324 218.607 62.3966V57.8539C216.4 57.8539 214.192 59.1366 212.942 60.7116V58.2935H208.271V75.9917H212.942Z" fill="#100F0D"/>
<path d="M231.15 75.9917L238.285 58.2935H233.246L228.611 70.6049L223.977 58.2935H218.975L226.111 75.9917H231.15Z" fill="#100F0D"/>
<path d="M245.053 75.9917V58.2935H240.383V75.9917H245.053ZM242.7 56.3876C244.244 56.3876 245.496 55.1423 245.496 53.6036C245.496 52.0637 244.244 50.8557 242.7 50.8557C241.191 50.8557 239.904 52.0637 239.904 53.6036C239.904 55.1423 241.191 56.3876 242.7 56.3876Z" fill="#100F0D"/>
<path d="M257.964 76.4312C261.606 76.4312 263.813 74.855 264.991 73.2063L261.937 70.3849C261.091 71.5576 259.804 72.2907 258.185 72.2907C255.353 72.2907 253.367 70.2013 253.367 67.1237C253.367 64.0462 255.353 61.9941 258.185 61.9941C259.804 61.9941 261.091 62.6536 261.937 63.9L264.991 61.0412C263.813 59.4287 261.606 57.8537 257.964 57.8537C252.484 57.8537 248.548 61.7006 248.548 67.1237C248.548 72.5842 252.484 76.4312 257.964 76.4312Z" fill="#100F0D"/>
<path d="M280.476 65.475H271.722C271.942 63.7164 273.193 61.5544 276.098 61.5544C279.189 61.5544 280.365 63.789 280.476 65.475ZM276.393 76.4312C279.152 76.4312 281.947 75.5881 283.714 73.9757L281.652 70.9707C280.513 72.0709 278.415 72.7304 276.908 72.7304C273.891 72.7304 272.09 70.8619 271.795 68.6263H285V67.6007C285 61.8105 281.395 57.8537 276.098 57.8537C270.691 57.8537 266.903 61.9941 266.903 67.1237C266.903 72.8029 270.985 76.4312 276.393 76.4312Z" fill="#100F0D"/>
<path d="M16.0373 60.8679L25.4908 36.4277H19.5327L12.7647 55.2261L5.95923 36.4277H0L9.49108 60.8679H16.0373Z" fill="#100F0D"/>
<path d="M48.775 60.8679L38.3648 47.8972L48.1129 36.4277H41.676L32.9948 47.3476V36.4277H27.7715V60.8679H32.9948V53.3565L34.908 51.0846L42.338 60.8679H48.775Z" fill="#100F0D"/>
</svg>
