<svg width="112" height="112" viewBox="0 0 112 112" fill="none" xmlns="http://www.w3.org/2000/svg">
<g filter="url(#filter0_d_1_417)">
<circle cx="56" cy="52" r="48" fill="#F8F7FF"/>
</g>
<g clip-path="url(#clip0_1_417)">
<path d="M55 41.8501V43.9201C53.76 44.0501 52.71 44.4501 51.89 45.1301C50.83 46.0001 50.3 47.0801 50.3 48.3501C50.3 49.6501 50.79 50.6701 51.75 51.3901C52.65 52.0601 53.97 52.5801 55.79 52.9701C57.68 53.3801 58.61 53.8601 59.06 54.2001C59.51 54.5401 59.71 54.9801 59.71 55.6401C59.71 56.3101 59.44 56.8301 58.85 57.3201C58.19 57.8601 57.26 58.1301 56.08 58.1301C54.81 58.1301 53.83 57.8401 53.15 57.2601C52.61 56.8001 52.34 56.2901 52.3 55.6601C52.27 55.1101 51.78 54.6901 51.24 54.7201C50.69 54.7501 50.27 55.2201 50.3 55.7801C50.37 56.9601 50.89 57.9801 51.85 58.7901C52.67 59.4901 53.74 59.9101 55 60.0601V62.1401C55 62.6901 55.45 63.1401 56 63.1401C56.55 63.1401 57 62.6901 57 62.1401V60.0701C58.24 59.9401 59.29 59.5401 60.11 58.8601C61.17 57.9901 61.7 56.9101 61.7 55.6401C61.7 54.3401 61.21 53.3201 60.25 52.6001C59.35 51.9301 58.03 51.4101 56.21 51.0201C54.32 50.6101 53.39 50.1301 52.94 49.7901C52.49 49.4501 52.29 49.0101 52.29 48.3501C52.29 47.6801 52.56 47.1601 53.15 46.6701C53.81 46.1301 54.74 45.8601 55.92 45.8601C57.19 45.8601 58.17 46.1501 58.85 46.7301C59.39 47.1901 59.66 47.7001 59.7 48.3301C59.73 48.8801 60.21 49.3001 60.76 49.2701C61.31 49.2401 61.73 48.7701 61.7 48.2101C61.63 47.0301 61.11 46.0101 60.15 45.2001C59.33 44.5001 58.26 44.0801 57 43.9301V41.8501C57 41.3001 56.55 40.8501 56 40.8501C55.45 40.8501 55 41.3001 55 41.8501Z" fill="#4AA0DE"/>
<path d="M39.96 52C39.96 60.85 47.16 68.04 56 68.04C64.84 68.04 72.04 60.85 72.04 52C72.04 43.15 64.85 35.96 56 35.96C47.15 35.96 39.96 43.15 39.96 52ZM70.04 52C70.04 59.74 63.74 66.04 56 66.04C48.26 66.04 41.96 59.74 41.96 52C41.96 44.26 48.26 37.96 56 37.96C63.74 37.96 70.04 44.26 70.04 52Z" fill="#4AA0DE"/>
<path d="M31.52 46.12C31.61 46.15 31.7 46.16 31.79 46.16C32.23 46.16 32.63 45.87 32.75 45.43C35.01 37.4 41.4 31.01 49.43 28.75C49.96 28.6 50.27 28.05 50.12 27.52C49.97 26.99 49.41 26.68 48.89 26.83C40.19 29.28 33.27 36.2 30.83 44.89C30.68 45.42 30.99 45.97 31.52 46.12Z" fill="#4AA0DE"/>
<path d="M49.43 75.2501C41.4 72.9901 35.01 66.6001 32.75 58.5701C32.6 58.0401 32.04 57.7301 31.52 57.8801C30.99 58.0301 30.68 58.5801 30.83 59.1101C33.28 67.8101 40.2 74.7301 48.89 77.1701C48.98 77.2001 49.07 77.2101 49.16 77.2101C49.6 77.2101 50 76.9201 50.12 76.4801C50.27 75.9501 49.96 75.4001 49.43 75.2501Z" fill="#4AA0DE"/>
<path d="M80.48 57.8801C79.96 57.7301 79.4 58.0401 79.25 58.5701C76.99 66.6001 70.6 72.9901 62.57 75.2501C62.04 75.4001 61.73 75.9501 61.88 76.4801C62 76.9201 62.41 77.2101 62.84 77.2101C62.93 77.2101 63.02 77.2001 63.11 77.1701C71.81 74.7201 78.73 67.8001 81.17 59.1101C81.32 58.5801 81.01 58.0301 80.48 57.8801Z" fill="#4AA0DE"/>
<path d="M62.57 28.75C70.6 31.01 76.99 37.4 79.25 45.43C79.37 45.87 79.78 46.16 80.21 46.16C80.3 46.16 80.39 46.15 80.48 46.12C81.01 45.97 81.32 45.42 81.17 44.89C78.72 36.19 71.8 29.27 63.11 26.83C62.59 26.68 62.03 26.99 61.88 27.52C61.73 28.05 62.04 28.6 62.57 28.75Z" fill="#4AA0DE"/>
<path d="M35.69 52C35.69 51.45 35.24 51 34.69 51H27C26.45 51 26 51.45 26 52C26 52.55 26.45 53 27 53H34.69C35.24 53 35.69 52.55 35.69 52Z" fill="#4AA0DE"/>
<path d="M85 51H77.31C76.76 51 76.31 51.45 76.31 52C76.31 52.55 76.76 53 77.31 53H85C85.55 53 86 52.55 86 52C86 51.45 85.55 51 85 51Z" fill="#4AA0DE"/>
<path d="M56 31.69C56.55 31.69 57 31.24 57 30.69V23C57 22.45 56.55 22 56 22C55.45 22 55 22.45 55 23V30.69C55 31.24 55.45 31.69 56 31.69Z" fill="#4AA0DE"/>
<path d="M56 72.3101C55.45 72.3101 55 72.7601 55 73.3101V81.0001C55 81.5501 55.45 82.0001 56 82.0001C56.55 82.0001 57 81.5501 57 81.0001V73.3101C57 72.7601 56.55 72.3101 56 72.3101Z" fill="#4AA0DE"/>
</g>
<defs>
<filter id="filter0_d_1_417" x="0" y="0" width="112" height="112" filterUnits="userSpaceOnUse" color-interpolation-filters="sRGB">
<feFlood flood-opacity="0" result="BackgroundImageFix"/>
<feColorMatrix in="SourceAlpha" type="matrix" values="0 0 0 0 0 0 0 0 0 0 0 0 0 0 0 0 0 0 127 0" result="hardAlpha"/>
<feOffset dy="4"/>
<feGaussianBlur stdDeviation="4"/>
<feComposite in2="hardAlpha" operator="out"/>
<feColorMatrix type="matrix" values="0 0 0 0 0.290196 0 0 0 0 0.627451 0 0 0 0 0.870588 0 0 0 0.2 0"/>
<feBlend mode="normal" in2="BackgroundImageFix" result="effect1_dropShadow_1_417"/>
<feBlend mode="normal" in="SourceGraphic" in2="effect1_dropShadow_1_417" result="shape"/>
</filter>
<clipPath id="clip0_1_417">
<rect width="64" height="64" fill="white" transform="translate(24 20)"/>
</clipPath>
</defs>
</svg>
