<svg width="112" height="112" viewBox="0 0 112 112" fill="none" xmlns="http://www.w3.org/2000/svg">
<g filter="url(#filter0_d_2048_19)">
<circle cx="56" cy="52" r="48" fill="white"/>
</g>
<g clip-path="url(#clip0_2048_19)">
<path d="M56 56C40.2964 56 37 63.6133 37 70C37 73.085 37.7412 75.3042 39.2666 76.7852C41.9292 79.3706 46.5054 79.2352 51.8057 79.0811C54.4957 79.002 57.5039 79.002 60.1943 79.0811C61.4268 79.1172 62.6191 79.1523 63.7578 79.1523C67.5178 79.1523 70.6895 78.77 72.7334 76.7852C74.2588 75.3042 75 73.085 75 70C75 63.6133 71.7036 56 56 56ZM71.34 75.35C69.2839 77.3466 65.0983 77.2235 60.2531 77.0819C58.8892 77.0415 57.4648 77 56 77C54.5352 77 53.1108 77.0415 51.7466 77.082C46.9028 77.2251 42.7166 77.3472 40.6597 75.3501C39.543 74.2656 39 72.5156 39 70C39 61.9253 44.5605 58 56 58C67.4395 58 73 61.9253 73 70C73 72.5156 72.457 74.2656 71.34 75.35Z" fill="#100F0D"/>
<path d="M44 47.9999C44.6905 47.9933 45.3722 47.8432 46.0017 47.5592C46.8737 49.4796 48.2803 51.1083 50.0534 52.2504C51.8264 53.3926 53.8909 54 56 54C58.1091 54 60.1736 53.3926 61.9466 52.2504C63.7197 51.1083 65.1263 49.4796 65.9983 47.5592C66.6346 47.8404 67.3227 47.9854 68.0183 47.9848C68.714 47.9842 69.4018 47.838 70.0376 47.5557C70.6734 47.2734 71.2431 46.8611 71.71 46.3455C72.177 45.8299 72.5309 45.2222 72.749 44.5616C72.967 43.901 73.0445 43.2021 72.9763 42.5098C72.9082 41.8175 72.6959 41.1471 72.3532 40.5418C72.0105 39.9364 71.5449 39.4094 70.9863 38.9948C70.4278 38.5801 69.7886 38.2869 69.11 38.1339C68.1203 35.454 66.3331 33.1418 63.9891 31.5086C61.645 29.8755 58.8568 29 56 29C53.1432 29 50.3549 29.8755 48.0109 31.5086C45.6669 33.1418 43.8797 35.454 42.89 38.1339C41.6916 38.4058 40.6355 39.11 39.9236 40.1117C39.2118 41.1134 38.8942 42.3423 39.0316 43.5635C39.169 44.7846 39.7517 45.9123 40.6683 46.7308C41.5849 47.5493 42.7711 48.0011 44 47.9999ZM56 51.9999C54.22 51.9999 52.4799 51.4721 50.9999 50.4832C49.5198 49.4942 48.3663 48.0886 47.6851 46.4441C47.0039 44.7996 46.8257 42.99 47.1729 41.2441C47.5202 39.4983 48.3774 37.8947 49.636 36.636C50.8947 35.3773 52.4983 34.5201 54.2442 34.1729C55.99 33.8256 57.7996 34.0038 59.4441 34.685C61.0887 35.3662 62.4943 36.5198 63.4832 37.9998C64.4722 39.4799 65 41.2199 65 42.9999C64.9973 45.3861 64.0483 47.6737 62.361 49.361C60.6738 51.0482 58.3861 51.9973 56 51.9999ZM71 42.9999C70.9991 43.7953 70.6828 44.5579 70.1203 45.1203C69.5579 45.6827 68.7954 45.9991 68 45.9999C67.5331 45.9984 67.0731 45.8863 66.6578 45.6729C67.1141 43.9201 67.1141 42.0797 66.6578 40.3269C67.0731 40.1136 67.5331 40.0015 68 39.9999C68.7954 40.0008 69.5579 40.3172 70.1203 40.8796C70.6828 41.442 70.9991 42.2046 71 42.9999ZM56 30.9999C58.3205 30.9957 60.5921 31.6673 62.5371 32.9329C64.4822 34.1985 66.0165 36.0031 66.9527 38.1264C66.6248 38.199 66.3051 38.3042 65.9983 38.4406C65.1263 36.5203 63.7197 34.8916 61.9466 33.7495C60.1736 32.6073 58.1091 31.9999 56 31.9999C53.8909 31.9999 51.8264 32.6073 50.0534 33.7495C48.2803 34.8916 46.8737 36.5203 46.0017 38.4406C45.6949 38.3042 45.3751 38.199 45.0473 38.1264C45.9835 36.0031 47.5178 34.1985 49.4629 32.9329C51.4079 31.6673 53.6795 30.9957 56 30.9999ZM44 39.9999C44.4669 40.0015 44.9269 40.1136 45.3422 40.3269C44.8859 42.0797 44.8859 43.9201 45.3422 45.6729C44.9269 45.8863 44.4669 45.9984 44 45.9999C43.2043 45.9999 42.4413 45.6839 41.8787 45.1213C41.3161 44.5587 41 43.7956 41 42.9999C41 42.2043 41.3161 41.4412 41.8787 40.8786C42.4413 40.316 43.2043 39.9999 44 39.9999Z" fill="#100F0D"/>
</g>
<defs>
<filter id="filter0_d_2048_19" x="0" y="0" width="112" height="112" filterUnits="userSpaceOnUse" color-interpolation-filters="sRGB">
<feFlood flood-opacity="0" result="BackgroundImageFix"/>
<feColorMatrix in="SourceAlpha" type="matrix" values="0 0 0 0 0 0 0 0 0 0 0 0 0 0 0 0 0 0 127 0" result="hardAlpha"/>
<feOffset dy="4"/>
<feGaussianBlur stdDeviation="4"/>
<feComposite in2="hardAlpha" operator="out"/>
<feColorMatrix type="matrix" values="0 0 0 0 0.290196 0 0 0 0 0.627451 0 0 0 0 0.870588 0 0 0 0.2 0"/>
<feBlend mode="normal" in2="BackgroundImageFix" result="effect1_dropShadow_2048_19"/>
<feBlend mode="normal" in="SourceGraphic" in2="effect1_dropShadow_2048_19" result="shape"/>
</filter>
<clipPath id="clip0_2048_19">
<rect width="64" height="64" fill="white" transform="translate(24 20)"/>
</clipPath>
</defs>
</svg>
