<svg width="112" height="112" viewBox="0 0 112 112" fill="none" xmlns="http://www.w3.org/2000/svg">
<g filter="url(#filter0_d_1_448)">
<circle cx="56" cy="52" r="48" fill="#F8F7FF"/>
</g>
<g clip-path="url(#clip0_1_448)">
<path d="M81.93 47.45C81.39 44.57 80.37 41.86 78.92 39.42C78.86 39.25 78.77 39.11 78.65 38.99C74 31.47 65.48 26.47 56 26.47C43.29 26.47 32.3 35.44 30.07 47.45C27.78 47.73 26 49.65 26 52C26 54.35 27.78 56.27 30.07 56.55C32.31 68.56 43.3 77.53 56 77.53C65.48 77.53 73.99 72.53 78.64 65.01C78.77 64.89 78.86 64.75 78.91 64.58C80.36 62.13 81.38 59.43 81.92 56.55C84.22 56.27 86 54.35 86 52C86 49.65 84.22 47.73 81.93 47.45ZM79.95 47.62C79.86 47.65 79.78 47.69 79.69 47.73C79.62 47.76 79.55 47.78 79.49 47.81C79.29 47.9 79.1 48 78.91 48.12C78.86 48.15 78.8 48.18 78.75 48.22C78.52 48.38 78.3 48.55 78.11 48.75C78.11 48.75 78.11 48.76 78.1 48.76C77.91 48.95 77.74 49.16 77.59 49.38C77.54 49.45 77.5 49.52 77.46 49.59C77.36 49.76 77.26 49.93 77.18 50.1C77.14 50.18 77.11 50.26 77.08 50.34C77 50.54 76.94 50.74 76.89 50.94C76.88 50.96 76.87 50.98 76.87 51H67.38C67.34 48.57 67.16 46.22 66.83 43.96C68.18 43.38 69.19 42.18 69.52 40.73H77.36C78.57 42.85 79.47 45.16 79.95 47.62ZM44.37 64.27C44.37 62.84 45.55 61.67 46.99 61.67C48.44 61.67 49.61 62.84 49.61 64.27C49.61 65.7 48.43 66.87 46.99 66.87C45.55 66.87 44.38 65.7 44.37 64.27ZM47.14 59.68C46.83 57.54 46.66 55.3 46.62 53H65.37C65.31 56.62 64.91 60.13 64.19 63.27H51.5C51.05 61.26 49.28 59.75 47.14 59.68ZM46.63 51C46.69 47.38 47.09 43.87 47.81 40.73H60.5C60.95 42.74 62.72 44.25 64.86 44.32C65.17 46.46 65.34 48.7 65.38 51H46.63ZM65.01 42.33C63.56 42.33 62.39 41.16 62.39 39.73C62.39 38.3 63.57 37.13 65.01 37.13C66.45 37.13 67.63 38.29 67.63 39.72V39.73V39.74C67.62 41.17 66.45 42.33 65.01 42.33ZM76.08 38.73H69.51C69.05 36.68 67.21 35.13 65.01 35.13C64.88 35.13 64.76 35.16 64.64 35.17C63.64 32.56 62.41 30.48 61.05 29.01C67.2 30.28 72.57 33.82 76.08 38.73ZM56 28.47C58.45 28.47 60.93 31.18 62.72 35.76C61.61 36.39 60.79 37.46 60.5 38.73H48.3C50.06 32.46 53.02 28.47 56 28.47ZM50.94 29.01C49 31.1 47.36 34.43 46.23 38.73H35.92C39.42 33.83 44.79 30.29 50.94 29.01ZM34.64 40.73H45.77C45.08 43.9 44.69 47.4 44.63 51H35.13C35.13 50.98 35.12 50.96 35.11 50.94C35.06 50.73 35 50.53 34.92 50.34C34.89 50.26 34.85 50.18 34.82 50.1C34.74 49.92 34.64 49.75 34.54 49.59C34.5 49.52 34.46 49.45 34.41 49.38C34.26 49.16 34.09 48.96 33.91 48.77L33.9 48.76C33.7 48.56 33.49 48.39 33.26 48.23C33.21 48.19 33.15 48.16 33.1 48.13C32.9 48 32.71 47.9 32.52 47.81C32.45 47.78 32.38 47.75 32.31 47.72C32.22 47.69 32.14 47.64 32.05 47.61C32.53 45.16 33.43 42.85 34.64 40.73ZM31.67 54.38C31.64 54.39 31.61 54.4 31.58 54.42C31.46 54.47 31.33 54.51 31.2 54.54C31.16 54.55 31.12 54.55 31.08 54.56C30.93 54.58 30.79 54.6 30.63 54.6C29.18 54.6 28 53.43 28 52C28 50.57 29.18 49.4 30.62 49.4C30.77 49.4 30.91 49.42 31.05 49.44C31.1 49.45 31.15 49.46 31.21 49.47C31.33 49.5 31.45 49.54 31.56 49.58C31.6 49.6 31.64 49.61 31.69 49.63C31.8 49.68 31.91 49.74 32.02 49.81C32.06 49.83 32.09 49.85 32.13 49.88C32.23 49.95 32.32 50.03 32.41 50.11C32.44 50.14 32.48 50.17 32.51 50.2C32.6 50.29 32.67 50.38 32.75 50.48C32.77 50.51 32.8 50.54 32.83 50.58C32.91 50.69 32.97 50.81 33.03 50.94C33.04 50.97 33.06 50.99 33.07 51.02C33.2 51.33 33.27 51.67 33.27 52.02C33.27 52.38 33.2 52.72 33.07 53.03C33.06 53.05 33.05 53.06 33.05 53.08C32.99 53.22 32.92 53.35 32.84 53.47C32.82 53.5 32.8 53.52 32.78 53.54C32.7 53.65 32.62 53.76 32.52 53.85C32.5 53.87 32.47 53.89 32.45 53.91C32.35 54 32.25 54.09 32.14 54.16C32.11 54.18 32.09 54.19 32.06 54.21C31.91 54.26 31.8 54.33 31.67 54.38ZM32.05 56.38C32.14 56.35 32.23 56.3 32.32 56.27C32.38 56.25 32.44 56.22 32.5 56.19C32.71 56.1 32.91 55.99 33.1 55.86C33.14 55.83 33.19 55.81 33.23 55.78C33.69 55.46 34.08 55.07 34.4 54.62C34.44 54.56 34.48 54.49 34.52 54.43C34.63 54.26 34.73 54.08 34.81 53.9C34.84 53.82 34.88 53.75 34.91 53.67C34.99 53.47 35.05 53.26 35.1 53.05C35.1 53.03 35.11 53.01 35.12 53H44.61C44.65 55.43 44.83 57.78 45.16 60.04C43.81 60.62 42.8 61.82 42.47 63.27H34.62C33.43 61.15 32.53 58.84 32.05 56.38ZM35.92 65.27H42.49C42.95 67.32 44.79 68.87 46.99 68.87C47.12 68.87 47.24 68.84 47.37 68.83C48.37 71.44 49.59 73.52 50.96 74.99C44.8 73.72 39.43 70.18 35.92 65.27ZM56 75.53C53.54 75.53 51.06 72.82 49.28 68.24C50.39 67.61 51.21 66.54 51.5 65.27H63.7C61.94 71.54 58.98 75.53 56 75.53ZM61.06 74.99C63 72.9 64.63 69.57 65.77 65.27H76.08C72.58 70.18 67.21 73.71 61.06 74.99ZM77.36 63.27H66.23C66.92 60.1 67.31 56.6 67.37 53H76.87C76.87 53.02 76.88 53.04 76.89 53.05C76.94 53.26 77 53.47 77.08 53.67C77.11 53.75 77.14 53.82 77.18 53.9C77.27 54.09 77.36 54.26 77.47 54.44C77.51 54.5 77.55 54.57 77.59 54.63C77.91 55.08 78.3 55.48 78.76 55.79C78.8 55.82 78.85 55.84 78.89 55.87C79.08 55.99 79.29 56.11 79.5 56.2C79.56 56.23 79.62 56.25 79.68 56.27C79.77 56.31 79.86 56.35 79.95 56.38C79.47 58.84 78.57 61.15 77.36 63.27ZM81.38 54.6C81.23 54.6 81.08 54.58 80.93 54.56C80.89 54.55 80.85 54.55 80.81 54.54C80.68 54.51 80.55 54.47 80.42 54.42C80.39 54.41 80.36 54.4 80.33 54.39C80.2 54.34 80.08 54.27 79.97 54.2C79.94 54.18 79.92 54.17 79.89 54.15C79.78 54.07 79.67 53.99 79.58 53.89C79.56 53.87 79.53 53.85 79.51 53.83C79.41 53.73 79.33 53.63 79.25 53.52C79.23 53.5 79.21 53.47 79.2 53.45C79.12 53.33 79.05 53.2 78.99 53.06C78.98 53.04 78.97 53.03 78.97 53.02C78.84 52.71 78.77 52.37 78.77 52.01C78.77 51.66 78.84 51.32 78.97 51.01C78.98 50.98 79 50.96 79.01 50.93C79.07 50.81 79.13 50.69 79.21 50.57C79.23 50.54 79.26 50.51 79.29 50.47C79.36 50.37 79.44 50.27 79.53 50.18C79.56 50.15 79.59 50.12 79.62 50.1C79.71 50.02 79.8 49.94 79.91 49.87C79.94 49.85 79.98 49.83 80.02 49.81C80.13 49.74 80.23 49.68 80.35 49.63C80.39 49.61 80.43 49.6 80.47 49.58C80.59 49.54 80.7 49.5 80.83 49.47C80.88 49.46 80.93 49.45 80.98 49.44C81.12 49.42 81.26 49.4 81.41 49.4C82.86 49.4 84.03 50.57 84.03 52C84 53.43 82.82 54.6 81.38 54.6Z" fill="#4AA0DE"/>
</g>
<defs>
<filter id="filter0_d_1_448" x="0" y="0" width="112" height="112" filterUnits="userSpaceOnUse" color-interpolation-filters="sRGB">
<feFlood flood-opacity="0" result="BackgroundImageFix"/>
<feColorMatrix in="SourceAlpha" type="matrix" values="0 0 0 0 0 0 0 0 0 0 0 0 0 0 0 0 0 0 127 0" result="hardAlpha"/>
<feOffset dy="4"/>
<feGaussianBlur stdDeviation="4"/>
<feComposite in2="hardAlpha" operator="out"/>
<feColorMatrix type="matrix" values="0 0 0 0 0.290196 0 0 0 0 0.627451 0 0 0 0 0.870588 0 0 0 0.2 0"/>
<feBlend mode="normal" in2="BackgroundImageFix" result="effect1_dropShadow_1_448"/>
<feBlend mode="normal" in="SourceGraphic" in2="effect1_dropShadow_1_448" result="shape"/>
</filter>
<clipPath id="clip0_1_448">
<rect width="64" height="64" fill="white" transform="translate(24 20)"/>
</clipPath>
</defs>
</svg>
