<svg width="112" height="112" viewBox="0 0 112 112" fill="none" xmlns="http://www.w3.org/2000/svg">
<g filter="url(#filter0_d_2048_18)">
<circle cx="56" cy="52" r="48" fill="white"/>
</g>
<g clip-path="url(#clip0_2048_18)">
<path d="M79.6162 48.4563C79.6107 48.3962 79.5988 48.337 79.5806 48.2795C79.5608 48.1723 79.5169 48.071 79.4523 47.9831C79.3877 47.8953 79.304 47.8233 79.2075 47.7724C79.1572 47.7375 79.1032 47.7082 79.0464 47.6849C79.0321 47.6797 79.0221 47.6682 79.0072 47.6636L58.4762 41.3462C58.9123 40.9099 59.2253 40.3662 59.3834 39.77C59.5415 39.1738 59.5391 38.5464 59.3765 37.9514C59.2139 37.3564 58.8969 36.815 58.4576 36.382C58.0183 35.9491 57.4723 35.64 56.875 35.4861V33.625C58.0349 33.6236 59.1469 33.1623 59.9671 32.3421C60.7873 31.5219 61.2486 30.4099 61.25 29.25C61.25 29.0179 61.1578 28.7954 60.9937 28.6313C60.8296 28.4672 60.6071 28.375 60.375 28.375H51.625C51.3929 28.375 51.1704 28.4672 51.0063 28.6313C50.8422 28.7954 50.75 29.0179 50.75 29.25C50.7514 30.4099 51.2127 31.5219 52.0329 32.3421C52.8531 33.1623 53.9651 33.6236 55.125 33.625V36.25C55.125 36.4821 55.2172 36.7046 55.3813 36.8687C55.5454 37.0328 55.7679 37.125 56 37.125C56.3461 37.125 56.6845 37.2276 56.9722 37.4199C57.26 37.6122 57.4843 37.8855 57.6168 38.2053C57.7492 38.5251 57.7839 38.8769 57.7164 39.2164C57.6488 39.5559 57.4822 39.8677 57.2374 40.1124C56.9927 40.3572 56.6809 40.5239 56.3414 40.5914C56.0019 40.6589 55.6501 40.6242 55.3303 40.4918C55.0105 40.3593 54.7372 40.135 54.5449 39.8472C54.3526 39.5595 54.25 39.2211 54.25 38.875C54.25 38.6429 54.1578 38.4204 53.9937 38.2563C53.8296 38.0922 53.6071 38 53.375 38C53.1429 38 52.9204 38.0922 52.7563 38.2563C52.5922 38.4204 52.5 38.6429 52.5 38.875C52.4997 39.334 52.59 39.7885 52.7657 40.2126C52.9413 40.6366 53.1989 41.0219 53.5237 41.3462L32.9926 47.6637C32.9777 47.6683 32.9677 47.6798 32.9534 47.685C32.8966 47.7082 32.8426 47.7376 32.7923 47.7725C32.7467 47.7976 32.7035 47.8267 32.6631 47.8596C32.5359 47.9674 32.4498 48.1157 32.4192 48.2796C32.401 48.3371 32.3891 48.3963 32.3836 48.4563C32.3828 48.4716 32.3748 48.4845 32.3748 48.5001V74.75C32.3748 74.9821 32.467 75.2046 32.6311 75.3687C32.7952 75.5328 33.0178 75.625 33.2498 75.625H78.75C78.9821 75.625 79.2046 75.5328 79.3687 75.3687C79.5328 75.2046 79.625 74.9821 79.625 74.75V48.5C79.625 48.4844 79.6169 48.4716 79.6162 48.4563ZM52.65 30.125H59.35C59.1685 30.6365 58.8332 31.0792 58.3901 31.3925C57.9469 31.7059 57.4177 31.8744 56.875 31.875H55.125C54.5823 31.8744 54.0531 31.7059 53.6099 31.3925C53.1668 31.0792 52.8315 30.6365 52.65 30.125ZM72.9307 47.625H39.0693L56 42.4152L72.9307 47.625ZM77.875 73.875H34.125V49.375H77.875V73.875Z" fill="#100F0D"/>
<path d="M37.625 71.25C37.8571 71.25 38.0796 71.1578 38.2437 70.9937C38.4078 70.8296 38.5 70.6071 38.5 70.375V52.875C38.5 52.6429 38.4078 52.4204 38.2437 52.2563C38.0796 52.0922 37.8571 52 37.625 52C37.3929 52 37.1704 52.0922 37.0063 52.2563C36.8422 52.4204 36.75 52.6429 36.75 52.875V70.375C36.75 70.6071 36.8422 70.8296 37.0063 70.9937C37.1704 71.1578 37.3929 71.25 37.625 71.25Z" fill="#100F0D"/>
<path d="M42.875 71.25C43.1071 71.25 43.3296 71.1578 43.4937 70.9937C43.6578 70.8296 43.75 70.6071 43.75 70.375V52.875C43.75 52.6429 43.6578 52.4204 43.4937 52.2563C43.3296 52.0922 43.1071 52 42.875 52C42.6429 52 42.4204 52.0922 42.2563 52.2563C42.0922 52.4204 42 52.6429 42 52.875V70.375C42 70.6071 42.0922 70.8296 42.2563 70.9937C42.4204 71.1578 42.6429 71.25 42.875 71.25Z" fill="#100F0D"/>
<path d="M48.125 71.25C48.3571 71.25 48.5796 71.1578 48.7437 70.9937C48.9078 70.8296 49 70.6071 49 70.375V52.875C49 52.6429 48.9078 52.4204 48.7437 52.2563C48.5796 52.0922 48.3571 52 48.125 52C47.8929 52 47.6704 52.0922 47.5063 52.2563C47.3422 52.4204 47.25 52.6429 47.25 52.875V70.375C47.25 70.6071 47.3422 70.8296 47.5063 70.9937C47.6704 71.1578 47.8929 71.25 48.125 71.25Z" fill="#100F0D"/>
<path d="M53.375 71.25C53.6071 71.25 53.8296 71.1578 53.9937 70.9937C54.1578 70.8296 54.25 70.6071 54.25 70.375V52.875C54.25 52.6429 54.1578 52.4204 53.9937 52.2563C53.8296 52.0922 53.6071 52 53.375 52C53.1429 52 52.9204 52.0922 52.7563 52.2563C52.5922 52.4204 52.5 52.6429 52.5 52.875V70.375C52.5 70.6071 52.5922 70.8296 52.7563 70.9937C52.9204 71.1578 53.1429 71.25 53.375 71.25Z" fill="#100F0D"/>
<path d="M58.625 71.25C58.8571 71.25 59.0796 71.1578 59.2437 70.9937C59.4078 70.8296 59.5 70.6071 59.5 70.375V52.875C59.5 52.6429 59.4078 52.4204 59.2437 52.2563C59.0796 52.0922 58.8571 52 58.625 52C58.3929 52 58.1704 52.0922 58.0063 52.2563C57.8422 52.4204 57.75 52.6429 57.75 52.875V70.375C57.75 70.6071 57.8422 70.8296 58.0063 70.9937C58.1704 71.1578 58.3929 71.25 58.625 71.25Z" fill="#100F0D"/>
<path d="M63.875 71.25C64.1071 71.25 64.3296 71.1578 64.4937 70.9937C64.6578 70.8296 64.75 70.6071 64.75 70.375V52.875C64.75 52.6429 64.6578 52.4204 64.4937 52.2563C64.3296 52.0922 64.1071 52 63.875 52C63.6429 52 63.4204 52.0922 63.2563 52.2563C63.0922 52.4204 63 52.6429 63 52.875V70.375C63 70.6071 63.0922 70.8296 63.2563 70.9937C63.4204 71.1578 63.6429 71.25 63.875 71.25Z" fill="#100F0D"/>
<path d="M69.125 71.25C69.3571 71.25 69.5796 71.1578 69.7437 70.9937C69.9078 70.8296 70 70.6071 70 70.375V52.875C70 52.6429 69.9078 52.4204 69.7437 52.2563C69.5796 52.0922 69.3571 52 69.125 52C68.8929 52 68.6704 52.0922 68.5063 52.2563C68.3422 52.4204 68.25 52.6429 68.25 52.875V70.375C68.25 70.6071 68.3422 70.8296 68.5063 70.9937C68.6704 71.1578 68.8929 71.25 69.125 71.25Z" fill="#100F0D"/>
<path d="M74.375 71.25C74.6071 71.25 74.8296 71.1578 74.9937 70.9937C75.1578 70.8296 75.25 70.6071 75.25 70.375V52.875C75.25 52.6429 75.1578 52.4204 74.9937 52.2563C74.8296 52.0922 74.6071 52 74.375 52C74.1429 52 73.9204 52.0922 73.7563 52.2563C73.5922 52.4204 73.5 52.6429 73.5 52.875V70.375C73.5 70.6071 73.5922 70.8296 73.7563 70.9937C73.9204 71.1578 74.1429 71.25 74.375 71.25Z" fill="#100F0D"/>
</g>
<defs>
<filter id="filter0_d_2048_18" x="0" y="0" width="112" height="112" filterUnits="userSpaceOnUse" color-interpolation-filters="sRGB">
<feFlood flood-opacity="0" result="BackgroundImageFix"/>
<feColorMatrix in="SourceAlpha" type="matrix" values="0 0 0 0 0 0 0 0 0 0 0 0 0 0 0 0 0 0 127 0" result="hardAlpha"/>
<feOffset dy="4"/>
<feGaussianBlur stdDeviation="4"/>
<feComposite in2="hardAlpha" operator="out"/>
<feColorMatrix type="matrix" values="0 0 0 0 0.290196 0 0 0 0 0.627451 0 0 0 0 0.870588 0 0 0 0.2 0"/>
<feBlend mode="normal" in2="BackgroundImageFix" result="effect1_dropShadow_2048_18"/>
<feBlend mode="normal" in="SourceGraphic" in2="effect1_dropShadow_2048_18" result="shape"/>
</filter>
<clipPath id="clip0_2048_18">
<rect width="56" height="56" fill="white" transform="translate(28 24)"/>
</clipPath>
</defs>
</svg>
