<svg width="112" height="112" viewBox="0 0 112 112" fill="none" xmlns="http://www.w3.org/2000/svg">
<g filter="url(#filter0_d_1_324)">
<circle cx="56" cy="52" r="48" fill="white"/>
</g>
<g clip-path="url(#clip0_1_324)">
<path d="M79.4174 51.4343C79.3353 51.3373 79.2331 51.2593 79.1178 51.2059C79.0026 51.1525 78.877 51.1249 78.75 51.125H71.9075L74.3627 36.3936C74.3835 36.2683 74.3768 36.14 74.3431 36.0175C74.3093 35.8951 74.2493 35.7814 74.1672 35.6845C74.0851 35.5876 73.9829 35.5097 73.8677 35.4562C73.7525 35.4028 73.627 35.3751 73.5 35.375H57.75C57.5428 35.3749 57.3423 35.4484 57.1843 35.5824C57.0262 35.7163 56.9209 35.902 56.887 36.1064L54.3839 51.125H47.25C47.0428 51.1249 46.8423 51.1984 46.6843 51.3324C46.5262 51.4663 46.4209 51.652 46.387 51.8564L43.762 67.6064C43.7411 67.7317 43.7478 67.8601 43.7816 67.9826C43.8154 68.105 43.8754 68.2187 43.9575 68.3156C44.0397 68.4126 44.1419 68.4904 44.2572 68.5439C44.3724 68.5973 44.498 68.625 44.625 68.625H76.125C76.3322 68.6251 76.5327 68.5516 76.6907 68.4177C76.8488 68.2837 76.9541 68.098 76.988 67.8936L79.613 52.1436C79.6341 52.0182 79.6275 51.8898 79.5937 51.7673C79.5599 51.6448 79.4997 51.5311 79.4174 51.4343ZM58.4909 37.125H72.4669L70.1341 51.125H56.1581L58.4909 37.125ZM47.9909 52.875H61.9669L60.8005 59.875L59.6339 66.875H45.6581L47.9909 52.875ZM75.3841 66.875H61.4081L62.5745 59.875L63.7411 52.875H77.7169L75.3841 66.875Z" fill="#100F0D"/>
<path d="M68.25 41.5C68.25 41.2679 68.1578 41.0454 67.9937 40.8813C67.8296 40.7172 67.6071 40.625 67.375 40.625H62.125C61.8929 40.625 61.6704 40.7172 61.5063 40.8813C61.3422 41.0454 61.25 41.2679 61.25 41.5C61.25 41.7321 61.3422 41.9546 61.5063 42.1187C61.6704 42.2828 61.8929 42.375 62.125 42.375H67.375C67.6071 42.375 67.8296 42.2828 67.9937 42.1187C68.1578 41.9546 68.25 41.7321 68.25 41.5Z" fill="#100F0D"/>
<path d="M56.875 56.375H51.625C51.3929 56.375 51.1704 56.4672 51.0063 56.6313C50.8422 56.7954 50.75 57.0179 50.75 57.25C50.75 57.4821 50.8422 57.7046 51.0063 57.8687C51.1704 58.0328 51.3929 58.125 51.625 58.125H56.875C57.1071 58.125 57.3296 58.0328 57.4937 57.8687C57.6578 57.7046 57.75 57.4821 57.75 57.25C57.75 57.0179 57.6578 56.7954 57.4937 56.6313C57.3296 56.4672 57.1071 56.375 56.875 56.375Z" fill="#100F0D"/>
<path d="M66.5 57.25C66.5 57.4821 66.5922 57.7046 66.7563 57.8687C66.9204 58.0328 67.1429 58.125 67.375 58.125H72.625C72.8571 58.125 73.0796 58.0328 73.2437 57.8687C73.4078 57.7046 73.5 57.4821 73.5 57.25C73.5 57.0179 73.4078 56.7954 73.2437 56.6313C73.0796 56.4672 72.8571 56.375 72.625 56.375H67.375C67.1429 56.375 66.9204 56.4672 66.7563 56.6313C66.5922 56.7954 66.5 57.0179 66.5 57.25Z" fill="#100F0D"/>
<path d="M44.625 52C44.625 51.7679 44.5328 51.5454 44.3687 51.3813C44.2046 51.2172 43.9821 51.125 43.75 51.125H33.25C33.0179 51.125 32.7954 51.2172 32.6313 51.3813C32.4672 51.5454 32.375 51.7679 32.375 52C32.375 52.2321 32.4672 52.4546 32.6313 52.6187C32.7954 52.7828 33.0179 52.875 33.25 52.875H43.75C43.9821 52.875 44.2046 52.7828 44.3687 52.6187C44.5328 52.4546 44.625 52.2321 44.625 52Z" fill="#100F0D"/>
<path d="M33.25 45H50.75C50.9821 45 51.2046 44.9078 51.3687 44.7437C51.5328 44.5796 51.625 44.3571 51.625 44.125C51.625 43.8929 51.5328 43.6704 51.3687 43.5063C51.2046 43.3422 50.9821 43.25 50.75 43.25H33.25C33.0179 43.25 32.7954 43.3422 32.6313 43.5063C32.4672 43.6704 32.375 43.8929 32.375 44.125C32.375 44.3571 32.4672 44.5796 32.6313 44.7437C32.7954 44.9078 33.0179 45 33.25 45Z" fill="#100F0D"/>
<path d="M39.375 66.875H33.25C33.0179 66.875 32.7954 66.9672 32.6313 67.1313C32.4672 67.2954 32.375 67.5179 32.375 67.75C32.375 67.9821 32.4672 68.2046 32.6313 68.3687C32.7954 68.5328 33.0179 68.625 33.25 68.625H39.375C39.6071 68.625 39.8296 68.5328 39.9937 68.3687C40.1578 68.2046 40.25 67.9821 40.25 67.75C40.25 67.5179 40.1578 67.2954 39.9937 67.1313C39.8296 66.9672 39.6071 66.875 39.375 66.875Z" fill="#100F0D"/>
<path d="M41.125 59H33.25C33.0179 59 32.7954 59.0922 32.6313 59.2563C32.4672 59.4204 32.375 59.6429 32.375 59.875C32.375 60.1071 32.4672 60.3296 32.6313 60.4937C32.7954 60.6578 33.0179 60.75 33.25 60.75H41.125C41.3571 60.75 41.5796 60.6578 41.7437 60.4937C41.9078 60.3296 42 60.1071 42 59.875C42 59.6429 41.9078 59.4204 41.7437 59.2563C41.5796 59.0922 41.3571 59 41.125 59Z" fill="#100F0D"/>
<path d="M33.25 37.125H53.375C53.6071 37.125 53.8296 37.0328 53.9937 36.8687C54.1578 36.7046 54.25 36.4821 54.25 36.25C54.25 36.0179 54.1578 35.7954 53.9937 35.6313C53.8296 35.4672 53.6071 35.375 53.375 35.375H33.25C33.0179 35.375 32.7954 35.4672 32.6313 35.6313C32.4672 35.7954 32.375 36.0179 32.375 36.25C32.375 36.4821 32.4672 36.7046 32.6313 36.8687C32.7954 37.0328 33.0179 37.125 33.25 37.125Z" fill="#100F0D"/>
</g>
<defs>
<filter id="filter0_d_1_324" x="0" y="0" width="112" height="112" filterUnits="userSpaceOnUse" color-interpolation-filters="sRGB">
<feFlood flood-opacity="0" result="BackgroundImageFix"/>
<feColorMatrix in="SourceAlpha" type="matrix" values="0 0 0 0 0 0 0 0 0 0 0 0 0 0 0 0 0 0 127 0" result="hardAlpha"/>
<feOffset dy="4"/>
<feGaussianBlur stdDeviation="4"/>
<feComposite in2="hardAlpha" operator="out"/>
<feColorMatrix type="matrix" values="0 0 0 0 0.290196 0 0 0 0 0.627451 0 0 0 0 0.870588 0 0 0 0.2 0"/>
<feBlend mode="normal" in2="BackgroundImageFix" result="effect1_dropShadow_1_324"/>
<feBlend mode="normal" in="SourceGraphic" in2="effect1_dropShadow_1_324" result="shape"/>
</filter>
<clipPath id="clip0_1_324">
<rect width="56" height="56" fill="white" transform="translate(28 24)"/>
</clipPath>
</defs>
</svg>
