<svg width="112" height="112" viewBox="0 0 112 112" fill="none" xmlns="http://www.w3.org/2000/svg">
<g filter="url(#filter0_d_1_438)">
<circle cx="56" cy="52" r="48" fill="#F8F7FF"/>
</g>
<g clip-path="url(#clip0_1_438)">
<path d="M70.2 43.65C67.33 38.77 62.05 35.48 56 35.48C46.91 35.48 39.51 42.89 39.51 52C39.51 61.11 46.91 68.52 56 68.52C62.05 68.52 67.34 65.23 70.2 60.35C70.25 60.28 70.31 60.2 70.34 60.12C71.7 57.72 72.48 54.95 72.48 52C72.48 49.05 71.69 46.28 70.34 43.88C70.31 43.8 70.26 43.73 70.2 43.65ZM67.53 43.24H62.29C61.73 41.14 60.97 39.38 60.05 38.07C63.07 38.95 65.67 40.79 67.53 43.24ZM50.67 51C50.73 48.89 50.95 46.95 51.3 45.24H60.69C61.04 46.95 61.27 48.89 61.32 51H50.67ZM61.33 53C61.27 55.11 61.05 57.05 60.7 58.76H51.31C50.96 57.05 50.73 55.11 50.68 53H61.33ZM56 37.48C57.52 37.48 59.15 39.65 60.2 43.24H51.8C52.85 39.65 54.48 37.48 56 37.48ZM51.95 38.07C51.03 39.38 50.27 41.14 49.71 43.24H44.47C46.33 40.79 48.93 38.95 51.95 38.07ZM43.19 45.24H49.26C48.93 47 48.73 48.94 48.68 51H41.57C41.7 48.93 42.27 46.98 43.19 45.24ZM43.19 58.76C42.27 57.02 41.71 55.07 41.56 53H48.67C48.72 55.06 48.92 57 49.25 58.76H43.19ZM44.47 60.76H49.71C50.27 62.86 51.03 64.62 51.95 65.93C48.93 65.05 46.33 63.21 44.47 60.76ZM56 66.52C54.48 66.52 52.85 64.35 51.8 60.76H60.2C59.15 64.35 57.52 66.52 56 66.52ZM60.05 65.93C60.97 64.62 61.73 62.86 62.29 60.76H67.53C65.67 63.21 63.07 65.05 60.05 65.93ZM68.81 58.76H62.74C63.07 57 63.27 55.06 63.32 53H70.43C70.3 55.07 69.73 57.02 68.81 58.76ZM63.33 51C63.28 48.94 63.08 47 62.75 45.24H68.82C69.74 46.98 70.3 48.93 70.45 51H63.33Z" fill="#4AA0DE"/>
<path d="M78.74 59.83V44.17C80.93 43.71 82.58 41.76 82.58 39.42C82.58 36.74 80.41 34.57 77.73 34.57C76.3 34.57 75.03 35.2 74.14 36.19L60.59 28.35C60.75 27.88 60.85 27.38 60.85 26.85C60.85 24.18 58.67 22 56 22C53.33 22 51.15 24.18 51.15 26.85C51.15 27.37 51.25 27.87 51.41 28.34L37.85 36.19C36.96 35.2 35.69 34.57 34.26 34.57C31.59 34.57 29.41 36.75 29.41 39.42C29.41 41.75 31.06 43.7 33.26 44.17V59.82C31.07 60.28 29.41 62.23 29.41 64.57C29.41 67.25 31.58 69.42 34.26 69.42C35.69 69.42 36.96 68.79 37.85 67.8L51.41 75.64C51.25 76.12 51.15 76.61 51.15 77.14C51.15 79.82 53.32 81.99 56 81.99C58.68 81.99 60.85 79.81 60.85 77.14C60.85 76.61 60.74 76.11 60.59 75.64L74.16 67.8C75.05 68.79 76.32 69.42 77.75 69.42C80.42 69.42 82.6 67.24 82.6 64.57C82.58 62.24 80.93 60.29 78.74 59.83ZM77.74 36.57C79.31 36.57 80.59 37.85 80.59 39.42C80.59 40.99 79.31 42.27 77.74 42.27C76.17 42.27 74.89 40.99 74.89 39.42C74.89 37.85 76.17 36.57 77.74 36.57ZM56 24C57.57 24 58.85 25.28 58.85 26.85C58.85 28.42 57.57 29.71 56 29.71C54.43 29.71 53.15 28.43 53.15 26.86C53.15 25.29 54.43 24 56 24ZM31.42 39.43C31.42 37.86 32.7 36.58 34.27 36.58C35.84 36.58 37.12 37.86 37.12 39.43C37.12 41 35.84 42.28 34.27 42.28C32.7 42.28 31.42 41 31.42 39.43ZM34.26 67.43C32.69 67.43 31.41 66.15 31.41 64.58C31.41 63.01 32.68 61.73 34.25 61.73C34.25 61.73 34.25 61.73 34.26 61.73C35.83 61.73 37.1 63.01 37.1 64.58C37.11 66.15 35.83 67.43 34.26 67.43ZM56 80C54.43 80 53.15 78.72 53.15 77.15C53.15 75.58 54.43 74.3 56 74.3C57.57 74.3 58.85 75.58 58.85 77.15C58.85 78.72 57.57 80 56 80ZM72.89 64.57C72.89 65.1 73 65.6 73.15 66.07L59.58 73.91C58.69 72.92 57.42 72.29 55.99 72.29C54.56 72.29 53.29 72.92 52.4 73.91L38.84 66.07C39 65.59 39.1 65.1 39.1 64.57C39.1 62.24 37.45 60.29 35.25 59.82V44.17C37.44 43.71 39.1 41.76 39.1 39.42C39.1 38.89 38.99 38.4 38.84 37.92L52.4 30.07C53.29 31.06 54.56 31.69 55.99 31.69C57.42 31.69 58.69 31.06 59.58 30.07L73.14 37.91C72.98 38.38 72.88 38.88 72.88 39.41C72.88 41.74 74.53 43.7 76.73 44.16V59.81C74.55 60.29 72.89 62.24 72.89 64.57ZM77.74 67.43C76.17 67.43 74.89 66.15 74.89 64.58C74.89 63.01 76.17 61.73 77.73 61.73C77.73 61.73 77.73 61.73 77.74 61.73C79.31 61.73 80.58 63.01 80.58 64.58C80.58 66.15 79.31 67.43 77.74 67.43Z" fill="#4AA0DE"/>
</g>
<defs>
<filter id="filter0_d_1_438" x="0" y="0" width="112" height="112" filterUnits="userSpaceOnUse" color-interpolation-filters="sRGB">
<feFlood flood-opacity="0" result="BackgroundImageFix"/>
<feColorMatrix in="SourceAlpha" type="matrix" values="0 0 0 0 0 0 0 0 0 0 0 0 0 0 0 0 0 0 127 0" result="hardAlpha"/>
<feOffset dy="4"/>
<feGaussianBlur stdDeviation="4"/>
<feComposite in2="hardAlpha" operator="out"/>
<feColorMatrix type="matrix" values="0 0 0 0 0.290196 0 0 0 0 0.627451 0 0 0 0 0.870588 0 0 0 0.2 0"/>
<feBlend mode="normal" in2="BackgroundImageFix" result="effect1_dropShadow_1_438"/>
<feBlend mode="normal" in="SourceGraphic" in2="effect1_dropShadow_1_438" result="shape"/>
</filter>
<clipPath id="clip0_1_438">
<rect width="64" height="64" fill="white" transform="translate(24 20)"/>
</clipPath>
</defs>
</svg>
