<svg width="112" height="112" viewBox="0 0 112 112" fill="none" xmlns="http://www.w3.org/2000/svg">
<g filter="url(#filter0_d_2048_17)">
<circle cx="56" cy="52" r="48" fill="white"/>
</g>
<g clip-path="url(#clip0_2048_17)">
<path d="M73.5 34.5H70.875V31.875C70.875 31.6429 70.7828 31.4204 70.6187 31.2563C70.4546 31.0922 70.2321 31 70 31H52.3595C52.1274 31 51.9049 31.0922 51.7408 31.2563C51.5767 31.4204 51.4845 31.6429 51.4845 31.875C51.4845 32.1071 51.5767 32.3296 51.7408 32.4937C51.9049 32.6578 52.1274 32.75 52.3595 32.75H69.125V72.125H39.375V32.75H42C42.2321 32.75 42.4546 32.6578 42.6187 32.4937C42.7828 32.3296 42.875 32.1071 42.875 31.875C42.875 31.6429 42.7828 31.4204 42.6187 31.2563C42.4546 31.0922 42.2321 31 42 31H38.5C38.2679 31 38.0454 31.0922 37.8813 31.2563C37.7172 31.4204 37.625 31.6429 37.625 31.875V73C37.625 73.2321 37.7172 73.4546 37.8813 73.6187C38.0454 73.7828 38.2679 73.875 38.5 73.875H41.125V76.5C41.125 76.7321 41.2172 76.9546 41.3813 77.1187C41.5454 77.2828 41.7679 77.375 42 77.375H73.5C73.7321 77.375 73.9546 77.2828 74.1187 77.1187C74.2828 76.9546 74.375 76.7321 74.375 76.5V35.375C74.375 35.1429 74.2828 34.9204 74.1187 34.7563C73.9546 34.5922 73.7321 34.5 73.5 34.5ZM72.625 75.625H42.875V73.875H70C70.2321 73.875 70.4546 73.7828 70.6187 73.6187C70.7828 73.4546 70.875 73.2321 70.875 73V36.25H72.625V75.625Z" fill="#100F0D"/>
<path d="M47.25 35.375C46.786 35.3745 46.3412 35.19 46.0131 34.8619C45.685 34.5338 45.5005 34.089 45.5 33.625C45.5 33.3929 45.4078 33.1704 45.2437 33.0063C45.0796 32.8422 44.8571 32.75 44.625 32.75C44.3929 32.75 44.1704 32.8422 44.0063 33.0063C43.8422 33.1704 43.75 33.3929 43.75 33.625C43.75 34.5533 44.1187 35.4435 44.7751 36.0999C45.4315 36.7563 46.3217 37.125 47.25 37.125C48.1783 37.125 49.0685 36.7563 49.7249 36.0999C50.3813 35.4435 50.75 34.5533 50.75 33.625V30.125C50.75 29.1967 50.3813 28.3065 49.7249 27.6501C49.0685 26.9937 48.1783 26.625 47.25 26.625C46.3217 26.625 45.4315 26.9937 44.7751 27.6501C44.1187 28.3065 43.75 29.1967 43.75 30.125C43.75 30.3571 43.8422 30.5796 44.0063 30.7437C44.1704 30.9078 44.3929 31 44.625 31C44.8571 31 45.0796 30.9078 45.2437 30.7437C45.4078 30.5796 45.5 30.3571 45.5 30.125C45.5 29.6609 45.6844 29.2158 46.0126 28.8876C46.3408 28.5594 46.7859 28.375 47.25 28.375C47.7141 28.375 48.1592 28.5594 48.4874 28.8876C48.8156 29.2158 49 29.6609 49 30.125V33.625C48.9995 34.089 48.815 34.5338 48.4869 34.8619C48.1588 35.19 47.714 35.3745 47.25 35.375Z" fill="#100F0D"/>
<path d="M43.75 42.375H64.75C64.9821 42.375 65.2046 42.2828 65.3687 42.1187C65.5328 41.9546 65.625 41.7321 65.625 41.5C65.625 41.2679 65.5328 41.0454 65.3687 40.8813C65.2046 40.7172 64.9821 40.625 64.75 40.625H43.75C43.5179 40.625 43.2954 40.7172 43.1313 40.8813C42.9672 41.0454 42.875 41.2679 42.875 41.5C42.875 41.7321 42.9672 41.9546 43.1313 42.1187C43.2954 42.2828 43.5179 42.375 43.75 42.375Z" fill="#100F0D"/>
<path d="M64.75 45.875H43.75C43.5179 45.875 43.2954 45.9672 43.1313 46.1313C42.9672 46.2954 42.875 46.5179 42.875 46.75C42.875 46.9821 42.9672 47.2046 43.1313 47.3687C43.2954 47.5328 43.5179 47.625 43.75 47.625H64.75C64.9821 47.625 65.2046 47.5328 65.3687 47.3687C65.5328 47.2046 65.625 46.9821 65.625 46.75C65.625 46.5179 65.5328 46.2954 65.3687 46.1313C65.2046 45.9672 64.9821 45.875 64.75 45.875Z" fill="#100F0D"/>
<path d="M64.75 51.125H43.75C43.5179 51.125 43.2954 51.2172 43.1313 51.3813C42.9672 51.5454 42.875 51.7679 42.875 52C42.875 52.2321 42.9672 52.4546 43.1313 52.6187C43.2954 52.7828 43.5179 52.875 43.75 52.875H64.75C64.9821 52.875 65.2046 52.7828 65.3687 52.6187C65.5328 52.4546 65.625 52.2321 65.625 52C65.625 51.7679 65.5328 51.5454 65.3687 51.3813C65.2046 51.2172 64.9821 51.125 64.75 51.125Z" fill="#100F0D"/>
<path d="M64.75 56.375H43.75C43.5179 56.375 43.2954 56.4672 43.1313 56.6313C42.9672 56.7954 42.875 57.0179 42.875 57.25C42.875 57.4821 42.9672 57.7046 43.1313 57.8687C43.2954 58.0328 43.5179 58.125 43.75 58.125H64.75C64.9821 58.125 65.2046 58.0328 65.3687 57.8687C65.5328 57.7046 65.625 57.4821 65.625 57.25C65.625 57.0179 65.5328 56.7954 65.3687 56.6313C65.2046 56.4672 64.9821 56.375 64.75 56.375Z" fill="#100F0D"/>
<path d="M64.75 61.625H43.75C43.5179 61.625 43.2954 61.7172 43.1313 61.8813C42.9672 62.0454 42.875 62.2679 42.875 62.5C42.875 62.7321 42.9672 62.9546 43.1313 63.1187C43.2954 63.2828 43.5179 63.375 43.75 63.375H64.75C64.9821 63.375 65.2046 63.2828 65.3687 63.1187C65.5328 62.9546 65.625 62.7321 65.625 62.5C65.625 62.2679 65.5328 62.0454 65.3687 61.8813C65.2046 61.7172 64.9821 61.625 64.75 61.625Z" fill="#100F0D"/>
<path d="M64.75 66.875H43.75C43.5179 66.875 43.2954 66.9672 43.1313 67.1313C42.9672 67.2954 42.875 67.5179 42.875 67.75C42.875 67.9821 42.9672 68.2046 43.1313 68.3687C43.2954 68.5328 43.5179 68.625 43.75 68.625H64.75C64.9821 68.625 65.2046 68.5328 65.3687 68.3687C65.5328 68.2046 65.625 67.9821 65.625 67.75C65.625 67.5179 65.5328 67.2954 65.3687 67.1313C65.2046 66.9672 64.9821 66.875 64.75 66.875Z" fill="#100F0D"/>
</g>
<defs>
<filter id="filter0_d_2048_17" x="0" y="0" width="112" height="112" filterUnits="userSpaceOnUse" color-interpolation-filters="sRGB">
<feFlood flood-opacity="0" result="BackgroundImageFix"/>
<feColorMatrix in="SourceAlpha" type="matrix" values="0 0 0 0 0 0 0 0 0 0 0 0 0 0 0 0 0 0 127 0" result="hardAlpha"/>
<feOffset dy="4"/>
<feGaussianBlur stdDeviation="4"/>
<feComposite in2="hardAlpha" operator="out"/>
<feColorMatrix type="matrix" values="0 0 0 0 0.290196 0 0 0 0 0.627451 0 0 0 0 0.870588 0 0 0 0.2 0"/>
<feBlend mode="normal" in2="BackgroundImageFix" result="effect1_dropShadow_2048_17"/>
<feBlend mode="normal" in="SourceGraphic" in2="effect1_dropShadow_2048_17" result="shape"/>
</filter>
<clipPath id="clip0_2048_17">
<rect width="56" height="56" fill="white" transform="translate(28 24)"/>
</clipPath>
</defs>
</svg>
