<svg width="112" height="112" viewBox="0 0 112 112" fill="none" xmlns="http://www.w3.org/2000/svg">
<g filter="url(#filter0_d_1_455)">
<circle cx="56" cy="52" r="48" fill="#F8F7FF"/>
</g>
<g clip-path="url(#clip0_1_455)">
<path d="M56 53.77C60.19 53.77 63.59 50.4 63.59 46.25C63.59 42.1 60.18 38.73 56 38.73C51.82 38.73 48.41 42.1 48.41 46.25C48.41 50.4 51.81 53.77 56 53.77ZM56 40.73C59.08 40.73 61.59 43.21 61.59 46.25C61.59 49.29 59.08 51.77 56 51.77C52.92 51.77 50.41 49.29 50.41 46.25C50.41 43.21 52.92 40.73 56 40.73Z" fill="#4AA0DE"/>
<path d="M37.95 50.29C42.14 50.29 45.54 46.92 45.54 42.77C45.54 38.62 42.13 35.25 37.95 35.25C33.77 35.25 30.36 38.62 30.36 42.77C30.36 46.92 33.77 50.29 37.95 50.29ZM37.95 37.25C41.03 37.25 43.54 39.73 43.54 42.77C43.54 45.81 41.03 48.29 37.95 48.29C34.87 48.29 32.36 45.81 32.36 42.77C32.36 39.72 34.87 37.25 37.95 37.25Z" fill="#4AA0DE"/>
<path d="M74.05 50.29C78.24 50.29 81.64 46.92 81.64 42.77C81.64 38.62 78.23 35.25 74.05 35.25C69.87 35.25 66.46 38.62 66.46 42.77C66.46 46.92 69.86 50.29 74.05 50.29ZM74.05 37.25C77.13 37.25 79.64 39.73 79.64 42.77C79.64 45.81 77.13 48.29 74.05 48.29C70.97 48.29 68.46 45.81 68.46 42.77C68.45 39.72 70.96 37.25 74.05 37.25Z" fill="#4AA0DE"/>
<path d="M74.05 51.5601C69.62 51.5601 65.65 53.9501 63.58 57.7501C61.52 56.0601 58.88 55.0401 56.02 55.0401H56C53.13 55.0401 50.5 56.0601 48.44 57.7501C46.36 53.9501 42.39 51.5601 37.97 51.5601C31.36 51.5601 26 56.9101 26 63.5001V64.2701C26 64.8201 26.45 65.2701 27 65.2701H44.18C44.1 65.8301 44.04 66.4001 44.04 66.9901V67.7501C44.04 68.3001 44.49 68.7501 45.04 68.7501H66.95C67.5 68.7501 67.95 68.3001 67.95 67.7501V66.9901C67.95 66.4001 67.89 65.8301 67.81 65.2701H85C85.55 65.2701 86 64.8201 86 64.2701V63.5001C86 56.9101 80.64 51.5601 74.05 51.5601ZM28 63.2701C28.12 57.8901 32.54 53.5601 37.95 53.5601C41.83 53.5601 45.29 55.7601 46.93 59.2201C45.92 60.4001 45.13 61.7701 44.64 63.2701H28ZM46.05 66.7501C46.18 61.3701 50.59 57.0401 55.99 57.0401H56.01C61.42 57.0401 65.83 61.3701 65.95 66.7501H46.05ZM67.36 63.2701C66.87 61.7601 66.08 60.3901 65.07 59.2201C66.71 55.7601 70.17 53.5601 74.05 53.5601C79.46 53.5601 83.88 57.9001 84 63.2701H67.36Z" fill="#4AA0DE"/>
</g>
<defs>
<filter id="filter0_d_1_455" x="0" y="0" width="112" height="112" filterUnits="userSpaceOnUse" color-interpolation-filters="sRGB">
<feFlood flood-opacity="0" result="BackgroundImageFix"/>
<feColorMatrix in="SourceAlpha" type="matrix" values="0 0 0 0 0 0 0 0 0 0 0 0 0 0 0 0 0 0 127 0" result="hardAlpha"/>
<feOffset dy="4"/>
<feGaussianBlur stdDeviation="4"/>
<feComposite in2="hardAlpha" operator="out"/>
<feColorMatrix type="matrix" values="0 0 0 0 0.290196 0 0 0 0 0.627451 0 0 0 0 0.870588 0 0 0 0.2 0"/>
<feBlend mode="normal" in2="BackgroundImageFix" result="effect1_dropShadow_1_455"/>
<feBlend mode="normal" in="SourceGraphic" in2="effect1_dropShadow_1_455" result="shape"/>
</filter>
<clipPath id="clip0_1_455">
<rect width="64" height="64" fill="white" transform="translate(24 20)"/>
</clipPath>
</defs>
</svg>
