<svg width="112" height="112" viewBox="0 0 112 112" fill="none" xmlns="http://www.w3.org/2000/svg">
<g filter="url(#filter0_d_1_405)">
<circle cx="56" cy="52" r="48" fill="#F8F7FF"/>
</g>
<g clip-path="url(#clip0_1_405)">
<path d="M47.3299 43.7C53.4099 43.7 58.3499 38.83 58.3499 32.85C58.3499 26.87 53.4099 22 47.3299 22C41.2499 22 36.3099 26.87 36.3099 32.85C36.3099 38.83 41.2599 43.7 47.3299 43.7ZM47.3299 24C52.2999 24 56.3499 27.97 56.3499 32.85C56.3499 37.73 52.2999 41.7 47.3299 41.7C42.3599 41.7 38.3099 37.73 38.3099 32.85C38.3099 27.97 42.3599 24 47.3299 24Z" fill="#4AA0DE"/>
<path d="M65.5699 48.6599C62.9199 48.6599 60.4299 49.2899 58.1999 50.3799C55.1299 47.9699 51.3199 46.6299 47.3999 46.6299H47.2699C37.5799 46.6299 29.6899 54.5199 29.6899 64.2199V65.3199C29.6899 65.8699 30.1399 66.3199 30.6899 66.3199H48.8799C49.3999 75.0499 56.6799 81.9999 65.5699 81.9999C74.7999 81.9999 82.31 74.5199 82.31 65.3299C82.31 56.1399 74.7999 48.6599 65.5699 48.6599ZM31.6899 64.3199V64.2199C31.6899 55.6199 38.6799 48.6299 47.2699 48.6299H47.3999C50.5999 48.6299 53.7099 49.6199 56.3099 51.4499C52.0699 54.2699 49.1999 58.9599 48.8799 64.3199H31.6899ZM65.5699 79.9999C57.4399 79.9999 50.8299 73.4199 50.8299 65.3299C50.8299 57.2399 57.4399 50.6599 65.5699 50.6599C73.6999 50.6599 80.31 57.2399 80.31 65.3299C80.31 73.4199 73.6999 79.9999 65.5699 79.9999Z" fill="#4AA0DE"/>
<path d="M74.11 61.33L69.41 63.42L66.34 59.69C65.96 59.23 65.1799 59.23 64.7999 59.69L61.7299 63.42L57.0299 61.33C56.6899 61.18 56.29 61.23 56 61.46C55.71 61.69 55.57 62.07 55.64 62.43L57.18 70.53C57.27 71 57.68 71.34 58.16 71.34H72.9799C73.4599 71.34 73.8699 71 73.9599 70.53L75.5 62.43C75.57 62.06 75.43 61.69 75.1399 61.46C74.8499 61.23 74.45 61.18 74.11 61.33ZM72.15 69.34H58.99L57.9599 63.93L61.61 65.55C62.02 65.73 62.5 65.62 62.79 65.27L65.57 61.89L68.3499 65.27C68.6399 65.62 69.1199 65.73 69.5299 65.55L73.18 63.93L72.15 69.34Z" fill="#4AA0DE"/>
</g>
<defs>
<filter id="filter0_d_1_405" x="0" y="0" width="112" height="112" filterUnits="userSpaceOnUse" color-interpolation-filters="sRGB">
<feFlood flood-opacity="0" result="BackgroundImageFix"/>
<feColorMatrix in="SourceAlpha" type="matrix" values="0 0 0 0 0 0 0 0 0 0 0 0 0 0 0 0 0 0 127 0" result="hardAlpha"/>
<feOffset dy="4"/>
<feGaussianBlur stdDeviation="4"/>
<feComposite in2="hardAlpha" operator="out"/>
<feColorMatrix type="matrix" values="0 0 0 0 0.290196 0 0 0 0 0.627451 0 0 0 0 0.870588 0 0 0 0.2 0"/>
<feBlend mode="normal" in2="BackgroundImageFix" result="effect1_dropShadow_1_405"/>
<feBlend mode="normal" in="SourceGraphic" in2="effect1_dropShadow_1_405" result="shape"/>
</filter>
<clipPath id="clip0_1_405">
<rect width="64" height="64" fill="white" transform="translate(24 20)"/>
</clipPath>
</defs>
</svg>
