<svg width="231" height="79" viewBox="0 0 231 79" fill="none" xmlns="http://www.w3.org/2000/svg">
<path fill-rule="evenodd" clip-rule="evenodd" d="M83.4792 1.52588e-05H80.1878C78.7117 1.52588e-05 77.4588 0.923363 77.0218 2.33234L74.7796 9.56886C72.9615 10.1319 71.2163 10.859 69.5604 11.7325L62.8532 8.19862C61.5468 7.51026 60.0081 7.74339 58.9644 8.78653C57.1989 10.5512 55.4343 12.3159 53.6687 14.0796C52.6242 15.1237 52.3918 16.6617 53.0805 17.9674L56.6162 24.6713C55.7431 26.3263 55.0157 28.0717 54.4524 29.8879L47.2114 32.129C45.8008 32.5649 44.8779 33.8172 44.8779 35.2935C44.8779 37.788 44.8779 40.2834 44.8779 42.7788C44.8779 44.255 45.8008 45.5064 47.2114 45.9432L54.4524 48.1843C55.0157 50.0006 55.7431 51.745 56.6162 53.4L53.0805 60.1048C52.3918 61.4106 52.6242 62.9486 53.6687 63.9917C55.4343 65.7564 57.1989 67.5211 58.9644 69.2848C60.0081 70.3289 61.5468 70.5611 62.8532 69.8727L69.5604 66.3397C71.2163 67.2133 72.9615 67.9403 74.7796 68.5025L77.0218 75.739C77.4588 77.1489 78.7117 78.0714 80.1878 78.0714H83.4792V55.9148C74.3592 55.6752 67.0389 48.2101 67.0389 39.0357C67.0389 29.8621 74.3592 22.3971 83.4792 22.1575V1.52588e-05Z" fill="white"/>
<path fill-rule="evenodd" clip-rule="evenodd" d="M87.4519 21.8064V3.31282C88.8634 4.44258 90.2214 6.01649 91.4808 8.00694C93.3385 10.9438 94.9547 14.7532 96.1948 19.3579C96.4123 20.1652 96.6133 20.9826 96.7996 21.8064H87.4519ZM87.4519 36.6241V26.1789H97.6339C98.1733 29.605 98.4674 33.1196 98.531 36.6241H87.4519ZM87.4519 51.4409V40.9957H98.4913C98.4028 43.4229 98.2037 45.8244 97.8995 48.164C97.7556 49.2717 97.5878 50.3655 97.397 51.4409H87.4519ZM87.4519 72.8851V55.8125H96.4713C94.9676 61.8557 92.6793 67.0603 89.7107 70.6293C88.9713 71.5185 88.2162 72.2696 87.4519 72.8851ZM101.27 21.8064C101.016 20.5983 100.731 19.4049 100.415 18.231C99.1358 13.4769 97.456 9.45093 95.5107 6.23305C96.6004 6.95551 97.657 7.75349 98.6739 8.62431C102.165 11.6155 105.192 15.4665 107.493 20.0988C107.774 20.6628 108.04 21.2323 108.294 21.8064H101.27ZM102.891 36.6241C102.832 33.1252 102.556 29.6124 102.05 26.1789H109.926C110.987 29.5967 111.591 33.1132 111.765 36.6241H102.891ZM101.817 51.4409C101.967 50.5406 102.103 49.6292 102.222 48.7105C102.549 46.1939 102.761 43.6091 102.852 40.9957H111.759C111.622 43.6432 111.243 46.2621 110.632 48.8091C110.418 49.6956 110.177 50.5738 109.909 51.4409H101.817ZM93.9166 72.3212C97.0494 68.109 99.4271 62.3404 100.947 55.8125H108.278C105.473 62.1902 101.062 67.7155 95.2553 71.4973C94.8146 71.7849 94.3684 72.0595 93.9166 72.3212ZM120.159 55.8125C115.196 66.2439 105.772 74.1448 94.3527 77.054C95.4535 76.4901 96.5479 75.857 97.6303 75.152C104.7 70.5473 109.921 63.6803 112.99 55.8125H120.159ZM123.899 40.9957C123.711 44.6301 123.03 48.1336 121.923 51.4409H114.448C114.597 50.9027 114.738 50.3618 114.869 49.8163C115.559 46.9431 115.981 43.985 116.122 40.9957H123.899ZM121.825 26.1789C122.961 29.4834 123.669 32.9869 123.881 36.6241H116.127C115.972 33.1215 115.427 29.6115 114.472 26.1789H121.825ZM95.6176 1.19058C106.366 4.31539 115.214 11.9003 120.022 21.8064H113.017C112.535 20.578 111.999 19.3635 111.406 18.1683C108.834 12.9913 105.436 8.67503 101.51 5.31155C99.6539 3.72196 97.6791 2.34522 95.6176 1.19058Z" fill="#4AA0DE"/>
<path d="M141.589 35.7653C146.955 35.7653 149.549 33.0229 149.549 29.3876C149.549 21.9677 138.131 24.0834 138.131 20.9245C138.131 19.733 139.144 18.9286 140.962 18.9286C142.99 18.9286 145.137 19.6132 146.746 21.1042L149.101 18.0043C147.135 16.1862 144.511 15.2334 141.35 15.2334C136.669 15.2334 133.808 17.9748 133.808 21.2821C133.808 28.7619 145.257 26.3485 145.257 29.8649C145.257 30.9965 144.123 32.0692 141.798 32.0692C139.055 32.0692 136.879 30.8482 135.477 29.3876L133.182 32.6055C135.03 34.4835 137.772 35.7653 141.589 35.7653Z" fill="white"/>
<path d="M173.996 35.4068V25.0076C173.996 22.057 172.416 20.6563 169.763 20.6563C167.557 20.6563 165.649 21.9676 164.813 23.2789C164.276 21.6405 162.935 20.6563 160.818 20.6563C158.613 20.6563 156.704 22.0275 156.108 22.8919V21.0139H152.322V35.4068H156.108V25.7227C156.674 24.9183 157.778 24.0235 159.089 24.0235C160.639 24.0235 161.237 24.9772 161.237 26.318V35.4068H165.052V25.6923C165.588 24.9183 166.692 24.0235 168.034 24.0235C169.584 24.0235 170.181 24.9772 170.181 26.318V35.4068H173.996Z" fill="white"/>
<path d="M183.328 33.2026C181.837 33.2026 180.615 32.4267 180.615 31.0859C180.615 29.6852 181.837 28.9103 183.328 28.9103C184.551 28.9103 185.743 29.3277 186.369 30.1626V31.9503C185.743 32.7852 184.551 33.2026 183.328 33.2026ZM190.156 35.4068V26.1098C190.156 21.9677 187.144 20.6564 183.865 20.6564C181.599 20.6564 179.333 21.3724 177.574 22.9214L179.005 25.4546C180.227 24.3221 181.658 23.7554 183.209 23.7554C185.117 23.7554 186.369 24.7091 186.369 26.1688V28.1058C185.415 26.9742 183.715 26.3485 181.807 26.3485C179.512 26.3485 176.798 27.6303 176.798 30.9965C176.798 34.2153 179.512 35.7653 181.807 35.7653C183.685 35.7653 185.386 35.0797 186.369 33.9168V35.4068H190.156Z" fill="white"/>
<path d="M197.698 35.4068V25.9006C198.324 24.9772 199.994 24.2622 201.246 24.2622C201.663 24.2622 202.021 24.2917 202.289 24.3516V20.6563C200.5 20.6563 198.712 21.6995 197.698 22.9813V21.0139H193.912V35.4068H197.698Z" fill="white"/>
<path d="M209.475 35.7653C211.055 35.7653 212.068 35.3478 212.636 34.841L211.831 31.9807C211.621 32.1889 211.085 32.3972 210.519 32.3972C209.683 32.3972 209.207 31.7126 209.207 30.8178V24.3221H212.129V21.0139H209.207V17.0809H205.39V21.0139H203.005V24.3221H205.39V31.8314C205.39 34.3941 206.821 35.7653 209.475 35.7653Z" fill="white"/>
<path d="M141.589 62.157C146.955 62.157 149.549 59.4156 149.549 55.7802C149.549 48.3603 138.131 50.4752 138.131 47.3172C138.131 46.1248 139.144 45.3203 140.962 45.3203C142.99 45.3203 145.137 46.0059 146.746 47.4951L149.101 44.397C147.135 42.5789 144.511 41.626 141.35 41.626C136.669 41.626 133.808 44.3675 133.808 47.6747C133.808 55.1546 145.257 52.7403 145.257 56.2567C145.257 57.3892 144.123 58.4618 141.798 58.4618C139.055 58.4618 136.879 57.2399 135.477 55.7802L133.182 58.9982C135.03 60.8753 137.772 62.157 141.589 62.157Z" fill="white"/>
<path d="M162.398 53.2471H155.303C155.482 51.8169 156.496 50.0587 158.852 50.0587C161.355 50.0587 162.31 51.8759 162.398 53.2471ZM159.089 62.157C161.325 62.157 163.591 61.4715 165.022 60.1602L163.353 57.7163C162.429 58.6111 160.73 59.1474 159.507 59.1474C157.062 59.1474 155.601 57.6279 155.362 55.8098H166.066V54.9758C166.066 50.2669 163.144 47.049 158.852 47.049C154.469 47.049 151.398 50.4162 151.398 54.5878C151.398 59.2064 154.707 62.157 159.089 62.157Z" fill="white"/>
<path d="M172.595 61.7995V52.2933C173.221 51.37 174.891 50.6549 176.143 50.6549C176.561 50.6549 176.917 50.6844 177.187 50.7434V47.0491C175.398 47.0491 173.608 48.0922 172.595 49.3731V47.4066H168.809V61.7995H172.595Z" fill="white"/>
<path d="M187.353 61.7995L193.136 47.4066H189.052L185.295 57.4187L181.539 47.4066H177.485L183.269 61.7995H187.353Z" fill="white"/>
<path d="M198.622 61.7995V47.4066H194.836V61.7995H198.622ZM196.714 45.8566C197.966 45.8566 198.981 44.8439 198.981 43.5925C198.981 42.3402 197.966 41.3579 196.714 41.3579C195.492 41.3579 194.448 42.3402 194.448 43.5925C194.448 44.8439 195.492 45.8566 196.714 45.8566Z" fill="white"/>
<path d="M209.087 62.157C212.038 62.157 213.828 60.8752 214.782 59.5345L212.306 57.2399C211.621 58.1937 210.578 58.7899 209.266 58.7899C206.97 58.7899 205.36 57.0906 205.36 54.5878C205.36 52.085 206.97 50.4162 209.266 50.4162C210.578 50.4162 211.621 50.9525 212.306 51.9662L214.782 49.6412C213.828 48.33 212.038 47.049 209.087 47.049C204.645 47.049 201.455 50.1775 201.455 54.5878C201.455 59.0285 204.645 62.157 209.087 62.157Z" fill="white"/>
<path d="M227.333 53.2471H220.238C220.416 51.8169 221.43 50.0587 223.785 50.0587C226.29 50.0587 227.243 51.8759 227.333 53.2471ZM224.024 62.157C226.26 62.157 228.525 61.4715 229.957 60.1602L228.287 57.7163C227.363 58.6111 225.663 59.1474 224.441 59.1474C221.996 59.1474 220.536 57.6279 220.297 55.8098H231V54.9758C231 50.2669 228.078 47.049 223.785 47.049C219.402 47.049 216.332 50.4162 216.332 54.5878C216.332 59.2064 219.641 62.157 224.024 62.157Z" fill="white"/>
<path d="M12.9986 49.5002L20.661 29.6244H15.8318L10.3462 44.9121L4.83012 29.6244H0L7.69277 49.5002H12.9986Z" fill="white"/>
<path d="M39.5334 49.5002L31.0957 38.9518L38.9968 29.6244H33.7795L26.7431 38.5049V29.6244H22.5095V49.5002H26.7431V43.3916L28.2939 41.544L34.3161 49.5002H39.5334Z" fill="white"/>
</svg>
